<?xml version="1.0" encoding="UTF-8"?>
<svg id="Layer_2" data-name="Layer 2" xmlns="http://www.w3.org/2000/svg" viewBox="0 0 746.46 421.16">
<circle cx="375" cy="195" r="400" fill="white" />
  <defs>
    <style>
      .cls-1 {
        fill: #fff;
      }

      .cls-1, .cls-2 {
        stroke-width: 0px;
      }

      .cls-3 {
        fill: none;
        stroke: #231f20;
        stroke-linecap: round;
        stroke-linejoin: round;
        stroke-width: 6.54px;
      }

      .cls-2 {
        fill: #231f20;
      }
    </style>
  </defs>
  <g id="Layer_1-2" data-name="Layer 1">
    <g>
      <path class="cls-2" d="m93.21,35.65l-70.69-5.18s5.1-1.49,5.1-1.49c0,0-20.49,14.57-20.49,14.57,0,0,1.36-4.46,1.36-4.46,0,0,75.44,272.56,75.44,272.58.2.73.13,1.47-.15,2.12l-45.22,103.55c-.45,1.04-1.66,1.51-2.7,1.06-1.02-.45-1.5-1.63-1.07-2.65,0,0,42.96-104.51,42.96-104.51,0,0-.14,2.16-.14,2.16,0,0-77.46-271.96-77.46-271.96-.48-1.68.13-3.37,1.36-4.46,0,0,17.66-17.89,17.66-17.89,1.33-1.35,3.2-1.86,4.93-1.52.14-.06,69.49,14.07,69.65,14.03,2.5.59,1.99,4.21-.56,4.07h0Z"/>
      <path class="cls-2" d="m33.17,33.52s80.54,277.12,80.56,277.16c.27.94.17,1.91-.21,2.74,0,0-49.44,106.75-49.44,106.75-.4.86-1.42,1.24-2.29.84-.84-.39-1.22-1.37-.87-2.22l45-108.69-.17,2.87L18.07,38.12c-2.82-10.07,11.6-14.78,15.1-4.6h0Z"/>
      <g>
        <path class="cls-1" d="m594.94,345.37c-1.41-.13-2.81-.27-4.2-.39-1.86-.18-3.71-.36-5.53-.53-1.41-.13-2.81-.25-4.2-.38-1.86-.17-3.7-.33-5.53-.49-1.42-.13-2.82-.25-4.21-.37-1.86-.16-3.7-.32-5.53-.47-1.41-.12-2.82-.23-4.21-.34-1.86-.16-3.7-.3-5.53-.45-1.41-.11-2.81-.21-4.21-.32-1.86-.14-3.7-.27-5.53-.41-1.41-.1-2.81-.19-4.21-.29-3.79-.26-7.56-.51-11.31-.73-3.01-.19-6.02-.36-9.02-.53-.14-.01-.27-.01-.4-.02-1.61-.09-3.22-.17-4.83-.26-.8-.04-1.6-.08-2.41-.12-.81-.04-1.61-.08-2.42-.12-.23-.01-.47-.02-.7-.03-1.73-.08-3.47-.16-5.21-.24-1.41-.06-2.82-.12-4.24-.18-.57-.02-1.14-.05-1.71-.07-1.13-.05-2.28-.09-3.42-.13-1.15-.04-2.3-.08-3.45-.13-.58-.02-1.16-.04-1.74-.06-.58-.02-1.16-.04-1.74-.06-.76-.02-1.52-.05-2.28-.07-.41-.01-.81-.02-1.22-.04-1.17-.03-2.35-.07-3.54-.11-.59-.01-1.18-.03-1.78-.05-1.18-.03-2.38-.06-3.58-.1-.29,0-.57-.01-.86-.02-.92-.02-1.84-.05-2.77-.07h-.03c-.94-.02-1.88-.05-2.83-.07-.94-.02-1.89-.04-2.84-.06-1.79-.04-3.6-.08-5.42-.12-1.09-.02-2.19-.04-3.3-.06-.98-.02-1.97-.03-2.96-.05-1.38-.03-2.77-.05-4.18-.07-.37-.01-.75-.01-1.13-.02-.98-.02-1.97-.03-2.97-.04-.99-.01-1.99-.02-3-.04-1.13-.02-2.27-.03-3.42-.04-.13-.01-.27-.01-.4-.01-.31,0-.62-.01-.93-.01-.81,0-1.62-.02-2.43-.03-1.64-.01-3.29-.03-4.95-.05-1.39-.01-2.8-.02-4.22-.04h-.28c-.94,0-1.89-.02-2.84-.02-.5,0-.99-.01-1.49-.01-1.46-.01-2.93-.02-4.41-.03-.74,0-1.48,0-2.23,0-.99-.01-1.99-.02-3-.02-1.26-.01-2.54-.01-3.82-.02-.77,0-1.54,0-2.31-.01-2.33-.01-4.69-.02-7.08-.02-.79,0-1.59-.01-2.4-.01-1,0-2.01,0-3.03-.01-2.85,0-5.74-.01-8.69-.01-4.42-.01-8.95-.01-13.6-.01-9.75,0-18.96.01-27.73.04-2.06,0-4.08,0-6.09.02h-.98c-.78.01-1.55.01-2.32.01-1.28.01-2.56.01-3.82.02-1.01,0-2.01.01-3,.02-.75,0-1.49,0-2.23,0-1.48.01-2.95.02-4.41.03-.5,0-1,.01-1.49.01-.95,0-1.9.01-2.84.02h-.28c-1.41.02-2.82.03-4.21.04-1.66.02-3.31.04-4.94.05-.82.01-1.63.02-2.44.03-.3,0-.6.01-.9.01-1.29.02-2.58.03-3.86.05-1,.02-2.01.03-3,.04-1,.01-1.99.02-2.97.04-.38.01-.75.01-1.12.02-.03.78-.07,1.52-.1,2.23,6.47-.18,12.94-.33,19.41-.46,1.35-.03,2.7-.06,4.05-.09,18.41-.35,36.84-.56,55.27-.67,18.41-.37,36.82-.52,55.22-.42l4.14.03c6.43.05,12.87.13,19.3.25,1.37.02,2.74.05,4.11.08,28.72.57,57.41,1.82,86.05,3.9,1.39.09,2.79.2,4.18.3,1.85.14,3.71.28,5.56.43l4.17.33c1.85.16,3.71.31,5.57.47,1.39.12,2.78.24,4.17.37,1.85.16,3.71.32,5.56.5,1.39.13,2.78.26,4.17.39,1.86.18,3.71.36,5.57.55,1.38.13,2.77.27,4.16.42,1.85.18,3.71.38,5.57.58,1.39.14,2.77.29,4.16.45,1.86.2,3.71.41,5.57.62l.02-1.71c-1.87-.18-3.71-.36-5.54-.54Zm15.28,1.51c-1.87-.19-3.72-.37-5.55-.56-1.41-.13-2.81-.27-4.19-.41-1.87-.18-3.71-.36-5.54-.54-1.41-.13-2.81-.27-4.2-.39-1.86-.18-3.71-.36-5.53-.53-1.41-.13-2.81-.25-4.2-.38-1.86-.17-3.7-.33-5.53-.49-1.42-.13-2.82-.25-4.21-.37-1.86-.16-3.7-.32-5.53-.47-1.41-.12-2.82-.23-4.21-.34-1.86-.16-3.7-.3-5.53-.45-1.41-.11-2.81-.21-4.21-.32-1.86-.14-3.7-.27-5.53-.41-1.41-.1-2.81-.19-4.21-.29-3.79-.26-7.56-.51-11.31-.73-3.01-.19-6.02-.36-9.02-.53-.14-.01-.27-.01-.4-.02-1.61-.09-3.22-.17-4.83-.26-.8-.04-1.6-.08-2.41-.12-.81-.04-1.61-.08-2.42-.12-.23-.01-.47-.02-.7-.03-1.73-.08-3.47-.16-5.21-.24-1.41-.06-2.82-.12-4.24-.18-.57-.02-1.14-.05-1.71-.07-1.13-.05-2.28-.09-3.42-.13-1.15-.04-2.3-.08-3.45-.13-.58-.02-1.16-.04-1.74-.06-.58-.02-1.16-.04-1.74-.06-.76-.02-1.52-.05-2.28-.07-.41-.01-.81-.02-1.22-.04-1.17-.03-2.35-.07-3.54-.11-.59-.01-1.18-.03-1.78-.05-1.18-.03-2.38-.06-3.58-.1-.29,0-.57-.01-.86-.02-.92-.02-1.84-.05-2.77-.07h-.03c-.94-.02-1.88-.05-2.83-.07-.94-.02-1.89-.04-2.84-.06-1.79-.04-3.6-.08-5.42-.12-1.09-.02-2.19-.04-3.3-.06-.98-.02-1.97-.03-2.96-.05-1.38-.03-2.77-.05-4.18-.07-.37-.01-.75-.01-1.13-.02-.98-.02-1.97-.03-2.97-.04-.99-.01-1.99-.02-3-.04-1.13-.02-2.27-.03-3.42-.04-.13-.01-.27-.01-.4-.01-.31,0-.62-.01-.93-.01-.81,0-1.62-.02-2.43-.03-1.64-.01-3.29-.03-4.95-.05-1.39-.01-2.8-.02-4.22-.04h-.28c-.94,0-1.89-.02-2.84-.02-.5,0-.99-.01-1.49-.01-1.46-.01-2.93-.02-4.41-.03-.74,0-1.48,0-2.23,0-.99-.01-1.99-.02-3-.02-1.26-.01-2.54-.01-3.82-.02-.77,0-1.54,0-2.31-.01-2.33-.01-4.69-.02-7.08-.02-.79,0-1.59-.01-2.4-.01-1,0-2.01,0-3.03-.01-2.85,0-5.74-.01-8.69-.01-4.42-.01-8.95-.01-13.6-.01-9.75,0-18.96.01-27.73.04-2.06,0-4.08,0-6.09.02h-.98c-.78.01-1.55.01-2.32.01-1.28.01-2.56.01-3.82.02-1.01,0-2.01.01-3,.02-.75,0-1.49,0-2.23,0-1.48.01-2.95.02-4.41.03-.5,0-1,.01-1.49.01-.95,0-1.9.01-2.84.02h-.28c-1.41.02-2.82.03-4.21.04-1.66.02-3.31.04-4.94.05-.82.01-1.63.02-2.44.03-.3,0-.6.01-.9.01-1.29.02-2.58.03-3.86.05-1,.02-2.01.03-3,.04-1,.01-1.99.02-2.97.04-.38.01-.75.01-1.12.02-1.41.02-2.8.04-4.18.07-.99.02-1.98.03-2.96.05-1.65.03-3.28.06-4.89.09-.73.02-1.45.03-2.17.05-.62.01-1.24.02-1.86.04-.88.02-1.76.04-2.64.06-.95.02-1.89.04-2.83.07h-.04c-.92.02-1.84.04-2.76.07-.35.01-.71.02-1.06.03-1.14.03-2.27.06-3.39.09-.6.02-1.19.03-1.78.05-1.04.03-2.08.06-3.11.1-.17,0-.33,0-.5,0-.17,0-.34.01-.51.02-.97.02-1.94.06-2.91.09-.59.02-1.17.04-1.75.06-.58.02-1.15.04-1.73.06-1.15.04-2.3.09-3.45.13-.07,0-.15.01-.22.01-1.07.03-2.14.08-3.21.12-1.99.08-3.97.16-5.94.25-1.74.08-3.48.16-5.21.24-.23.01-.47.02-.7.03-.81.04-1.61.08-2.42.12-.81.04-1.61.08-2.41.12-1.61.09-3.22.17-4.83.26-.13.01-.27.01-.41.02-3.06.17-6.12.35-9.18.54-.29.02-.58.03-.87.05-1.56.1-3.12.19-4.69.3-1.85.12-3.71.24-5.58.37-1.4.09-2.8.19-4.21.29-1.83.14-3.68.27-5.53.41-1.4.11-2.8.21-4.21.32-1.83.15-3.67.29-5.53.45-1.4.11-2.8.22-4.21.34-1.83.15-3.67.31-5.53.47-1.39.12-2.8.24-4.21.37-1.83.16-3.67.32-5.53.49-1.39.13-2.79.25-4.2.38-1.82.17-3.66.35-5.53.53-1.39.12-2.79.26-4.2.39-1.83.18-3.67.36-5.54.54-1.38.14-2.78.28-4.19.41-1.83.19-3.68.37-5.55.56-1.39.14-2.78.28-4.19.43l.11,2.81c1.37-.16,2.74-.31,4.11-.46,1.87-.21,3.75-.41,5.62-.6,1.37-.15,2.74-.29,4.11-.42,1.87-.2,3.74-.39,5.61-.57,1.38-.14,2.75-.27,4.13-.41,1.86-.17,3.73-.35,5.6-.52,1.38-.13,2.75-.26,4.13-.38,1.87-.17,3.73-.33,5.6-.49,1.37-.12,2.75-.24,4.13-.35,1.86-.16,3.73-.31,5.6-.46,1.38-.12,2.76-.22,4.14-.33,1.86-.15,3.72-.29,5.59-.43,1.38-.1,2.76-.2,4.14-.3,1.86-.14,3.73-.27,5.6-.4,1.38-.1,2.75-.19,4.13-.28,28.68-1.93,57.39-3.2,86.12-4.02,1.33-.04,2.66-.07,3.98-.11,6.47-.18,12.94-.33,19.41-.46,1.35-.03,2.7-.06,4.05-.09,18.41-.35,36.84-.56,55.27-.67,18.41-.37,36.82-.52,55.22-.42l4.14.03c6.43.05,12.87.13,19.3.25,1.37.02,2.74.05,4.11.08,28.72.57,57.41,1.82,86.05,3.9,1.39.09,2.79.2,4.18.3,1.85.14,3.71.28,5.56.43l4.17.33c1.85.16,3.71.31,5.57.47,1.39.12,2.78.24,4.17.37,1.85.16,3.71.32,5.56.5,1.39.13,2.78.26,4.17.39,1.86.18,3.71.36,5.57.55,1.38.13,2.77.27,4.16.42,1.85.18,3.71.38,5.57.58,1.39.14,2.77.29,4.16.45,1.86.2,3.71.41,5.57.62,1.38.16,2.77.32,4.15.48,1.86.22,3.72.44,5.58.67,1.38.16,2.76.33,4.13.51l.08-1.97c-1.4-.15-2.8-.29-4.18-.43Zm3.28,23c-1.18-.06-2.36-.11-3.54-.16-2.05-.09-4.1-.18-6.16-.26-1.18-.05-2.36-.1-3.54-.14-2.06-.08-4.1-.16-6.16-.23h-.01c-1.18-.04-2.36-.08-3.53-.12-2.06-.07-4.12-.14-6.17-.2-1.18-.04-2.35-.07-3.52-.1-2.06-.06-4.13-.12-6.19-.17-1.17-.03-2.34-.06-3.51-.08-2.06-.06-4.12-.11-6.19-.14-1.16-.04-2.33-.06-3.5-.08-2.07-.05-4.14-.08-6.21-.12-1.16-.02-2.33-.04-3.49-.06-2.07-.03-4.14-.06-6.21-.09-1.16-.02-2.32-.03-3.49-.04-56.3-.7-112.77.29-168.85.41-55.81.01-112.89-1.32-168.86-.62-1.16.01-2.33.02-3.49.04-2.07.03-4.13.06-6.2.1-1.17.02-2.33.04-3.5.06-1.21.02-2.41.05-3.62.07-.86.02-1.72.03-2.58.05-1.17.03-2.34.05-3.51.08-2.06.04-4.12.09-6.18.14-1.17.03-2.35.06-3.52.09-2.06.05-4.12.1-6.18.16-1.18.03-2.36.06-3.53.1-2.05.06-4.11.12-6.16.18-1.18.03-2.36.07-3.54.11-2.05.06-4.11.12-6.16.19-1.18.03-2.37.07-3.55.11-2.05.07-4.11.13-6.16.2-1.19.04-2.37.08-3.56.12l-.77-19.36c-1.17.12-2.34.25-3.5.39l-.03,19.11v2.81c1.48-.05,2.96-.1,4.42-.16,1.16-.04,2.32-.08,3.47-.12,2.11-.08,4.18-.16,6.24-.23,1.16-.04,2.31-.08,3.46-.12,2.1-.08,4.18-.15,6.23-.22,1.17-.04,2.32-.08,3.47-.12,2.1-.07,4.18-.14,6.23-.21,1.16-.04,2.31-.08,3.46-.11,2.1-.07,4.18-.14,6.24-.21,1.16-.03,2.31-.07,3.45-.11,2.1-.06,4.19-.12,6.25-.18,1.15-.04,2.3-.07,3.44-.1,2.1-.07,4.19-.13,6.26-.18,1.15-.04,2.29-.07,3.43-.1,2.1-.06,4.18-.11,6.26-.16,1.14-.03,2.29-.06,3.42-.09,6.04-.15,12-.28,17.96-.41h.01c1.38-.02,2.75-.05,4.13-.08,5.57-.1,11.16-.2,16.82-.29.94-.01,1.88-.02,2.83-.04,7.19-.1,14.5-.19,22.06-.26,29.15-.29,61.93-.37,105.06-.37s75.92.08,105.07.37c7.56.07,14.87.16,22.05.26.95.02,1.89.03,2.83.04,5.66.09,11.24.19,16.82.29,1.38.03,2.75.06,4.13.08h.01c5.96.13,11.92.26,17.95.41,1.14.03,2.28.06,3.43.09,2.07.05,4.16.1,6.26.16,1.14.03,2.28.06,3.43.1,2.07.05,4.16.11,6.26.18,1.14.03,2.28.06,3.44.1,2.06.06,4.14.12,6.25.18,1.14.04,2.29.08,3.45.11,2.06.07,4.14.14,6.24.21,1.14.03,2.29.07,3.45.11,2.06.07,4.14.14,6.24.21,1.15.04,2.31.08,3.47.12,2.05.07,4.12.14,6.22.22,1.15.04,2.31.08,3.47.12,2.05.07,4.13.15,6.23.23,1.15.04,2.31.08,3.47.12,1.63.06,3.28.12,4.95.18,0-.78,0-1.56.02-2.34-1.62-.08-3.25-.16-4.87-.23Zm-452.16-22.74c1.38-.13,2.75-.26,4.13-.38,1.87-.17,3.73-.33,5.6-.49,1.37-.12,2.75-.24,4.13-.35,1.86-.16,3.73-.31,5.6-.46,1.38-.12,2.76-.22,4.14-.33,1.86-.15,3.72-.29,5.59-.43,1.38-.1,2.76-.2,4.14-.3,1.86-.14,3.73-.27,5.6-.4,1.38-.1,2.75-.19,4.13-.28,28.68-1.93,57.39-3.2,86.12-4.02,1.33-.04,2.66-.07,3.98-.11,6.47-.18,12.94-.33,19.41-.46,1.35-.03,2.7-.06,4.05-.09,18.41-.35,36.84-.56,55.27-.67,18.41-.37,36.82-.52,55.22-.42l4.14.03c6.43.05,12.87.13,19.3.25,1.37.02,2.74.05,4.11.08,28.72.57,57.41,1.82,86.05,3.9,1.39.09,2.79.2,4.18.3,1.85.14,3.71.28,5.56.43l4.17.33c1.85.16,3.71.31,5.57.47,1.39.12,2.78.24,4.17.37,1.85.16,3.71.32,5.56.5,1.39.13,2.78.26,4.17.39,1.86.18,3.71.36,5.57.55,1.38.13,2.77.27,4.16.42,1.85.18,3.71.38,5.57.58,1.39.14,2.77.29,4.16.45,1.86.2,3.71.41,5.57.62l.02-1.71c-1.87-.18-3.71-.36-5.54-.54-1.41-.13-2.81-.27-4.2-.39-1.86-.18-3.71-.36-5.53-.53-1.41-.13-2.81-.25-4.2-.38-1.86-.17-3.7-.33-5.53-.49-1.42-.13-2.82-.25-4.21-.37-1.86-.16-3.7-.32-5.53-.47-1.41-.12-2.82-.23-4.21-.34-1.86-.16-3.7-.3-5.53-.45-1.41-.11-2.81-.21-4.21-.32-1.86-.14-3.7-.27-5.53-.41-1.41-.1-2.81-.19-4.21-.29-3.79-.26-7.56-.51-11.31-.73-3.01-.19-6.02-.36-9.02-.53-.14-.01-.27-.01-.4-.02-1.61-.09-3.22-.17-4.83-.26-.8-.04-1.6-.08-2.41-.12-.81-.04-1.61-.08-2.42-.12-.23-.01-.47-.02-.7-.03-1.73-.08-3.47-.16-5.21-.24-1.41-.06-2.82-.12-4.24-.18-.57-.02-1.14-.05-1.71-.07-1.13-.05-2.28-.09-3.42-.13-1.15-.04-2.3-.08-3.45-.13-.58-.02-1.16-.04-1.74-.06-.58-.02-1.16-.04-1.74-.06-.76-.02-1.52-.05-2.28-.07-.41-.01-.81-.02-1.22-.04-1.17-.03-2.35-.07-3.54-.11-.59-.01-1.18-.03-1.78-.05-1.18-.03-2.38-.06-3.58-.1-.29,0-.57-.01-.86-.02-.92-.02-1.84-.05-2.77-.07h-.03c-.94-.02-1.88-.05-2.83-.07-.94-.02-1.89-.04-2.84-.06-1.79-.04-3.6-.08-5.42-.12-1.09-.02-2.19-.04-3.3-.06-.98-.02-1.97-.03-2.96-.05-1.38-.03-2.77-.05-4.18-.07-.37-.01-.75-.01-1.13-.02-.98-.02-1.97-.03-2.97-.04-.99-.01-1.99-.02-3-.04-1.13-.02-2.27-.03-3.42-.04-.13-.01-.27-.01-.4-.01-.31,0-.62-.01-.93-.01-.81,0-1.62-.02-2.43-.03-1.64-.01-3.29-.03-4.95-.05-1.39-.01-2.8-.02-4.22-.04h-.28c-.94,0-1.89-.02-2.84-.02-.5,0-.99-.01-1.49-.01-1.46-.01-2.93-.02-4.41-.03-.74,0-1.48,0-2.23,0-.99-.01-1.99-.02-3-.02-1.26-.01-2.54-.01-3.82-.02-.77,0-1.54,0-2.31-.01-2.33-.01-4.69-.02-7.08-.02-.79,0-1.59-.01-2.4-.01-1,0-2.01,0-3.03-.01-2.85,0-5.74-.01-8.69-.01-4.42-.01-8.95-.01-13.6-.01-9.75,0-18.96.01-27.73.04-2.06,0-4.08,0-6.09.02h-.98c-.78.01-1.55.01-2.32.01-1.28.01-2.56.01-3.82.02-1.01,0-2.01.01-3,.02-.75,0-1.49,0-2.23,0-1.48.01-2.95.02-4.41.03-.5,0-1,.01-1.49.01-.95,0-1.9.01-2.84.02h-.28c-1.41.02-2.82.03-4.21.04-1.66.02-3.31.04-4.94.05-.82.01-1.63.02-2.44.03-.3,0-.6.01-.9.01-1.29.02-2.58.03-3.86.05-1,.02-2.01.03-3,.04-1,.01-1.99.02-2.97.04-.38.01-.75.01-1.12.02-1.41.02-2.8.04-4.18.07-.99.02-1.98.03-2.96.05-1.65.03-3.28.06-4.89.09-.73.02-1.45.03-2.17.05-.62.01-1.24.02-1.86.04-.88.02-1.76.04-2.64.06-.95.02-1.89.04-2.83.07h-.04c-.92.02-1.84.04-2.76.07-.35.01-.71.02-1.06.03-1.14.03-2.27.06-3.39.09-.6.02-1.19.03-1.78.05-1.04.03-2.08.06-3.11.1-.17,0-.33,0-.5,0-.17,0-.34.01-.51.02-.97.02-1.94.06-2.91.09-.59.02-1.17.04-1.75.06-.58.02-1.15.04-1.73.06-1.15.04-2.3.09-3.45.13-.07,0-.15.01-.22.01-1.07.03-2.14.08-3.21.12-1.99.08-3.97.16-5.94.25-1.74.08-3.48.16-5.21.24-.23.01-.47.02-.7.03-.81.04-1.61.08-2.42.12-.81.04-1.61.08-2.41.12-1.61.09-3.22.17-4.83.26-.13.01-.27.01-.41.02-3.06.17-6.12.35-9.18.54-.29.02-.58.03-.87.05-1.56.1-3.12.19-4.69.3-1.85.12-3.71.24-5.58.37-1.4.09-2.8.19-4.21.29-1.83.14-3.68.27-5.53.41-1.4.11-2.8.21-4.21.32-1.83.15-3.67.29-5.53.45-1.4.11-2.8.22-4.21.34-1.83.15-3.67.31-5.53.47-1.39.12-2.8.24-4.21.37-1.83.16-3.67.32-5.53.49-1.39.13-2.79.25-4.2.38-1.82.17-3.66.35-5.53.53l.02,2.68c1.86-.17,3.73-.35,5.6-.52Zm433.6-1.77c-1.41-.13-2.81-.27-4.2-.39-1.86-.18-3.71-.36-5.53-.53-1.41-.13-2.81-.25-4.2-.38-1.86-.17-3.7-.33-5.53-.49-1.42-.13-2.82-.25-4.21-.37-1.86-.16-3.7-.32-5.53-.47-1.41-.12-2.82-.23-4.21-.34-1.86-.16-3.7-.3-5.53-.45-1.41-.11-2.81-.21-4.21-.32-1.86-.14-3.7-.27-5.53-.41-1.41-.1-2.81-.19-4.21-.29-3.79-.26-7.56-.51-11.31-.73-3.01-.19-6.02-.36-9.02-.53-.14-.01-.27-.01-.4-.02-1.61-.09-3.22-.17-4.83-.26-.8-.04-1.6-.08-2.41-.12-.81-.04-1.61-.08-2.42-.12-.23-.01-.47-.02-.7-.03-1.73-.08-3.47-.16-5.21-.24-1.41-.06-2.82-.12-4.24-.18-.57-.02-1.14-.05-1.71-.07-1.13-.05-2.28-.09-3.42-.13-1.15-.04-2.3-.08-3.45-.13-.58-.02-1.16-.04-1.74-.06-.58-.02-1.16-.04-1.74-.06-.76-.02-1.52-.05-2.28-.07-.41-.01-.81-.02-1.22-.04-1.17-.03-2.35-.07-3.54-.11-.59-.01-1.18-.03-1.78-.05-1.18-.03-2.38-.06-3.58-.1-.29,0-.57-.01-.86-.02-.92-.02-1.84-.05-2.77-.07h-.03c-.94-.02-1.88-.05-2.83-.07-.94-.02-1.89-.04-2.84-.06-1.79-.04-3.6-.08-5.42-.12-1.09-.02-2.19-.04-3.3-.06-.98-.02-1.97-.03-2.96-.05-1.38-.03-2.77-.05-4.18-.07-.37-.01-.75-.01-1.13-.02-.98-.02-1.97-.03-2.97-.04-.99-.01-1.99-.02-3-.04-1.13-.02-2.27-.03-3.42-.04-.13-.01-.27-.01-.4-.01-.31,0-.62-.01-.93-.01-.81,0-1.62-.02-2.43-.03-1.64-.01-3.29-.03-4.95-.05-1.39-.01-2.8-.02-4.22-.04h-.28c-.94,0-1.89-.02-2.84-.02-.5,0-.99-.01-1.49-.01-1.46-.01-2.93-.02-4.41-.03-.74,0-1.48,0-2.23,0-.99-.01-1.99-.02-3-.02-1.26-.01-2.54-.01-3.82-.02-.77,0-1.54,0-2.31-.01-2.33-.01-4.69-.02-7.08-.02-.79,0-1.59-.01-2.4-.01-1,0-2.01,0-3.03-.01-2.85,0-5.74-.01-8.69-.01-4.42-.01-8.95-.01-13.6-.01-9.75,0-18.96.01-27.73.04-2.06,0-4.08,0-6.09.02h-.98c-.78.01-1.55.01-2.32.01-1.28.01-2.56.01-3.82.02-1.01,0-2.01.01-3,.02-.75,0-1.49,0-2.23,0-1.48.01-2.95.02-4.41.03-.5,0-1,.01-1.49.01-.95,0-1.9.01-2.84.02h-.28c-1.41.02-2.82.03-4.21.04-1.66.02-3.31.04-4.94.05-.82.01-1.63.02-2.44.03-.3,0-.6.01-.9.01-1.29.02-2.58.03-3.86.05-1,.02-2.01.03-3,.04-1,.01-1.99.02-2.97.04-.38.01-.75.01-1.12.02-1.41.02-2.8.04-4.18.07-.99.02-1.98.03-2.96.05-1.65.03-3.28.06-4.89.09-.73.02-1.45.03-2.17.05-.62.01-1.24.02-1.86.04-.88.02-1.76.04-2.64.06-.95.02-1.89.04-2.83.07h-.04c-.92.02-1.84.04-2.76.07-.35.01-.71.02-1.06.03-1.14.03-2.27.06-3.39.09-.6.02-1.19.03-1.78.05-1.04.03-2.08.06-3.11.1-.17,0-.33,0-.5,0-.17,0-.34.01-.51.02-.97.02-1.94.06-2.91.09-.59.02-1.17.04-1.75.06-.58.02-1.15.04-1.73.06-1.15.04-2.3.09-3.45.13-.07,0-.15.01-.22.01-1.07.03-2.14.08-3.21.12-1.99.08-3.97.16-5.94.25-1.74.08-3.48.16-5.21.24-.23.01-.47.02-.7.03-.81.04-1.61.08-2.42.12-.81.04-1.61.08-2.41.12-1.61.09-3.22.17-4.83.26-.13.01-.27.01-.41.02-3.06.17-6.12.35-9.18.54-.29.02-.58.03-.87.05-1.56.1-3.12.19-4.69.3-1.85.12-3.71.24-5.58.37-1.4.09-2.8.19-4.21.29-1.83.14-3.68.27-5.53.41-1.4.11-2.8.21-4.21.32-1.83.15-3.67.29-5.53.45-1.4.11-2.8.22-4.21.34-1.83.15-3.67.31-5.53.47-1.39.12-2.8.24-4.21.37-1.83.16-3.67.32-5.53.49-1.39.13-2.79.25-4.2.38-1.82.17-3.66.35-5.53.53l.02,2.68c1.86-.17,3.73-.35,5.6-.52,1.38-.13,2.75-.26,4.13-.38,1.87-.17,3.73-.33,5.6-.49,1.37-.12,2.75-.24,4.13-.35,1.86-.16,3.73-.31,5.6-.46,1.38-.12,2.76-.22,4.14-.33,1.86-.15,3.72-.29,5.59-.43,1.38-.1,2.76-.2,4.14-.3,1.86-.14,3.73-.27,5.6-.4,1.38-.1,2.75-.19,4.13-.28,28.68-1.93,57.39-3.2,86.12-4.02,1.33-.04,2.66-.07,3.98-.11,6.47-.18,12.94-.33,19.41-.46,1.35-.03,2.7-.06,4.05-.09,18.41-.35,36.84-.56,55.27-.67,18.41-.37,36.82-.52,55.22-.42l4.14.03c6.43.05,12.87.13,19.3.25,1.37.02,2.74.05,4.11.08,28.72.57,57.41,1.82,86.05,3.9,1.39.09,2.79.2,4.18.3,1.85.14,3.71.28,5.56.43l4.17.33c1.85.16,3.71.31,5.57.47,1.39.12,2.78.24,4.17.37,1.85.16,3.71.32,5.56.5,1.39.13,2.78.26,4.17.39,1.86.18,3.71.36,5.57.55,1.38.13,2.77.27,4.16.42,1.85.18,3.71.38,5.57.58,1.39.14,2.77.29,4.16.45,1.86.2,3.71.41,5.57.62l.02-1.71c-1.87-.18-3.71-.36-5.54-.54Z"/>
        <path class="cls-2" d="m604.67,346.32c-1.41-.13-2.81-.27-4.19-.41-1.87-.18-3.71-.36-5.54-.54-1.41-.13-2.81-.27-4.2-.39-1.86-.18-3.71-.36-5.53-.53-1.41-.13-2.81-.25-4.2-.38-1.86-.17-3.7-.33-5.53-.49-1.42-.13-2.82-.25-4.21-.37-1.86-.16-3.7-.32-5.53-.47-1.41-.12-2.82-.23-4.21-.34-1.86-.16-3.7-.3-5.53-.45-1.41-.11-2.81-.21-4.21-.32-1.86-.14-3.7-.27-5.53-.41-1.41-.1-2.81-.19-4.21-.29-3.79-.26-7.56-.51-11.31-.73-3.01-.19-6.02-.36-9.02-.53-.14-.01-.27-.01-.4-.02-1.61-.09-3.22-.17-4.83-.26-.8-.04-1.6-.08-2.41-.12-.81-.04-1.61-.08-2.42-.12-.23-.01-.47-.02-.7-.03-1.73-.08-3.47-.16-5.21-.24-1.41-.06-2.82-.12-4.24-.18-.57-.02-1.14-.05-1.71-.07-1.13-.05-2.28-.09-3.42-.13-1.15-.04-2.3-.08-3.45-.13-.58-.02-1.16-.04-1.74-.06-.58-.02-1.16-.04-1.74-.06-.76-.02-1.52-.05-2.28-.07-.41-.01-.81-.02-1.22-.04-1.17-.03-2.35-.07-3.54-.11-.59-.01-1.18-.03-1.78-.05-1.18-.03-2.38-.06-3.58-.1-.29,0-.57-.01-.86-.02-.92-.02-1.84-.05-2.77-.07h-.03c-.94-.02-1.88-.05-2.83-.07-.94-.02-1.89-.04-2.84-.06-1.79-.04-3.6-.08-5.42-.12-1.09-.02-2.19-.04-3.3-.06-.98-.02-1.97-.03-2.96-.05-1.38-.03-2.77-.05-4.18-.07-.37-.01-.75-.01-1.13-.02-.98-.02-1.97-.03-2.97-.04-.99-.01-1.99-.02-3-.04-1.13-.02-2.27-.03-3.42-.04-.13-.01-.27-.01-.4-.01-.31,0-.62-.01-.93-.01-.81,0-1.62-.02-2.43-.03-1.64-.01-3.29-.03-4.95-.05-1.39-.01-2.8-.02-4.22-.04h-.28c-.94,0-1.89-.02-2.84-.02-.5,0-.99-.01-1.49-.01-1.46-.01-2.93-.02-4.41-.03-.74,0-1.48,0-2.23,0-.99-.01-1.99-.02-3-.02-1.26-.01-2.54-.01-3.82-.02-.77,0-1.54,0-2.31-.01-2.33-.01-4.69-.02-7.08-.02-.79,0-1.59-.01-2.4-.01-1,0-2.01,0-3.03-.01-2.85,0-5.74-.01-8.69-.01-4.42-.01-8.95-.01-13.6-.01-9.75,0-18.96.01-27.73.04-2.06,0-4.08,0-6.09.02h-.98c-.78.01-1.55.01-2.32.01-1.28.01-2.56.01-3.82.02-1.01,0-2.01.01-3,.02-.75,0-1.49,0-2.23,0-1.48.01-2.95.02-4.41.03-.5,0-1,.01-1.49.01-.95,0-1.9.01-2.84.02h-.28c-1.41.02-2.82.03-4.21.04-1.66.02-3.31.04-4.94.05-.82.01-1.63.02-2.44.03-.3,0-.6.01-.9.01-1.29.02-2.58.03-3.86.05-1,.02-2.01.03-3,.04-1,.01-1.99.02-2.97.04-.38.01-.75.01-1.12.02-1.41.02-2.8.04-4.18.07-.99.02-1.98.03-2.96.05-1.65.03-3.28.06-4.89.09-.73.02-1.45.03-2.17.05-.62.01-1.24.02-1.86.04-.88.02-1.76.04-2.64.06-.95.02-1.89.04-2.83.07h-.04c-.92.02-1.84.04-2.76.07-.35.01-.71.02-1.06.03-1.14.03-2.27.06-3.39.09-.6.02-1.19.03-1.78.05-1.04.03-2.08.06-3.11.1-.17,0-.33,0-.5,0-.17,0-.34.01-.51.02-.97.02-1.94.06-2.91.09-.59.02-1.17.04-1.75.06-.58.02-1.15.04-1.73.06-1.15.04-2.3.09-3.45.13-.07,0-.15.01-.22.01-1.07.03-2.14.08-3.21.12-1.99.08-3.97.16-5.94.25-1.74.08-3.48.16-5.21.24-.23.01-.47.02-.7.03-.81.04-1.61.08-2.42.12-.81.04-1.61.08-2.41.12-1.61.09-3.22.17-4.83.26-.13.01-.27.01-.41.02-3.06.17-6.12.35-9.18.54-.29.02-.58.03-.87.05-1.56.1-3.12.19-4.69.3-1.85.12-3.71.24-5.58.37-1.4.09-2.8.19-4.21.29-1.83.14-3.68.27-5.53.41-1.4.11-2.8.21-4.21.32-1.83.15-3.67.29-5.53.45-1.4.11-2.8.22-4.21.34-1.83.15-3.67.31-5.53.47-1.39.12-2.8.24-4.21.37-1.83.16-3.67.32-5.53.49-1.39.13-2.79.25-4.2.38-1.82.17-3.66.35-5.53.53-1.39.12-2.79.26-4.2.39-1.83.18-3.67.36-5.54.54l.02,2.73c1.87-.2,3.74-.39,5.61-.57,1.38-.14,2.75-.27,4.13-.41,1.86-.17,3.73-.35,5.6-.52,1.38-.13,2.75-.26,4.13-.38,1.87-.17,3.73-.33,5.6-.49,1.37-.12,2.75-.24,4.13-.35,1.86-.16,3.73-.31,5.6-.46,1.38-.12,2.76-.22,4.14-.33,1.86-.15,3.72-.29,5.59-.43,1.38-.1,2.76-.2,4.14-.3,1.86-.14,3.73-.27,5.6-.4,1.38-.1,2.75-.19,4.13-.28,28.68-1.93,57.39-3.2,86.12-4.02,1.33-.04,2.66-.07,3.98-.11,6.47-.18,12.94-.33,19.41-.46,1.35-.03,2.7-.06,4.05-.09,18.41-.35,36.84-.56,55.27-.67,18.41-.37,36.82-.52,55.22-.42l4.14.03c6.43.05,12.87.13,19.3.25,1.37.02,2.74.05,4.11.08,28.72.57,57.41,1.82,86.05,3.9,1.39.09,2.79.2,4.18.3,1.85.14,3.71.28,5.56.43l4.17.33c1.85.16,3.71.31,5.57.47,1.39.12,2.78.24,4.17.37,1.85.16,3.71.32,5.56.5,1.39.13,2.78.26,4.17.39,1.86.18,3.71.36,5.57.55,1.38.13,2.77.27,4.16.42,1.85.18,3.71.38,5.57.58,1.39.14,2.77.29,4.16.45,1.86.2,3.71.41,5.57.62,1.38.16,2.77.32,4.15.48,1.86.22,3.72.44,5.58.67l.03-1.89c-1.87-.19-3.72-.37-5.55-.56Zm-9.73-.95c-1.41-.13-2.81-.27-4.2-.39-1.86-.18-3.71-.36-5.53-.53-1.41-.13-2.81-.25-4.2-.38-1.86-.17-3.7-.33-5.53-.49-1.42-.13-2.82-.25-4.21-.37-1.86-.16-3.7-.32-5.53-.47-1.41-.12-2.82-.23-4.21-.34-1.86-.16-3.7-.3-5.53-.45-1.41-.11-2.81-.21-4.21-.32-1.86-.14-3.7-.27-5.53-.41-1.41-.1-2.81-.19-4.21-.29-3.79-.26-7.56-.51-11.31-.73-3.01-.19-6.02-.36-9.02-.53-.14-.01-.27-.01-.4-.02-1.61-.09-3.22-.17-4.83-.26-.8-.04-1.6-.08-2.41-.12-.81-.04-1.61-.08-2.42-.12-.23-.01-.47-.02-.7-.03-1.73-.08-3.47-.16-5.21-.24-1.41-.06-2.82-.12-4.24-.18-.57-.02-1.14-.05-1.71-.07-1.13-.05-2.28-.09-3.42-.13-1.15-.04-2.3-.08-3.45-.13-.58-.02-1.16-.04-1.74-.06-.58-.02-1.16-.04-1.74-.06-.76-.02-1.52-.05-2.28-.07-.41-.01-.81-.02-1.22-.04-1.17-.03-2.35-.07-3.54-.11-.59-.01-1.18-.03-1.78-.05-1.18-.03-2.38-.06-3.58-.1-.29,0-.57-.01-.86-.02-.92-.02-1.84-.05-2.77-.07h-.03c-.94-.02-1.88-.05-2.83-.07-.94-.02-1.89-.04-2.84-.06-1.79-.04-3.6-.08-5.42-.12-1.09-.02-2.19-.04-3.3-.06-.98-.02-1.97-.03-2.96-.05-1.38-.03-2.77-.05-4.18-.07-.37-.01-.75-.01-1.13-.02-.98-.02-1.97-.03-2.97-.04-.99-.01-1.99-.02-3-.04-1.13-.02-2.27-.03-3.42-.04-.13-.01-.27-.01-.4-.01-.31,0-.62-.01-.93-.01-.81,0-1.62-.02-2.43-.03-1.64-.01-3.29-.03-4.95-.05-1.39-.01-2.8-.02-4.22-.04h-.28c-.94,0-1.89-.02-2.84-.02-.5,0-.99-.01-1.49-.01-1.46-.01-2.93-.02-4.41-.03-.74,0-1.48,0-2.23,0-.99-.01-1.99-.02-3-.02-1.26-.01-2.54-.01-3.82-.02-.77,0-1.54,0-2.31-.01-2.33-.01-4.69-.02-7.08-.02-.79,0-1.59-.01-2.4-.01-1,0-2.01,0-3.03-.01-2.85,0-5.74-.01-8.69-.01-4.42-.01-8.95-.01-13.6-.01-9.75,0-18.96.01-27.73.04-2.06,0-4.08,0-6.09.02h-.98c-.78.01-1.55.01-2.32.01-1.28.01-2.56.01-3.82.02-1.01,0-2.01.01-3,.02-.75,0-1.49,0-2.23,0-1.48.01-2.95.02-4.41.03-.5,0-1,.01-1.49.01-.95,0-1.9.01-2.84.02h-.28c-1.41.02-2.82.03-4.21.04-1.66.02-3.31.04-4.94.05-.82.01-1.63.02-2.44.03-.3,0-.6.01-.9.01-1.29.02-2.58.03-3.86.05-1,.02-2.01.03-3,.04-1,.01-1.99.02-2.97.04-.38.01-.75.01-1.12.02-1.41.02-2.8.04-4.18.07-.99.02-1.98.03-2.96.05-1.65.03-3.28.06-4.89.09-.73.02-1.45.03-2.17.05-.62.01-1.24.02-1.86.04-.88.02-1.76.04-2.64.06-.95.02-1.89.04-2.83.07h-.04c-.92.02-1.84.04-2.76.07-.35.01-.71.02-1.06.03-1.14.03-2.27.06-3.39.09-.6.02-1.19.03-1.78.05-1.04.03-2.08.06-3.11.1-.17,0-.33,0-.5,0-.17,0-.34.01-.51.02-.97.02-1.94.06-2.91.09-.59.02-1.17.04-1.75.06-.58.02-1.15.04-1.73.06-1.15.04-2.3.09-3.45.13-.07,0-.15.01-.22.01-1.07.03-2.14.08-3.21.12-1.99.08-3.97.16-5.94.25-1.74.08-3.48.16-5.21.24-.23.01-.47.02-.7.03-.81.04-1.61.08-2.42.12-.81.04-1.61.08-2.41.12-1.61.09-3.22.17-4.83.26-.13.01-.27.01-.41.02-3.06.17-6.12.35-9.18.54-.29.02-.58.03-.87.05-1.56.1-3.12.19-4.69.3-1.85.12-3.71.24-5.58.37-1.4.09-2.8.19-4.21.29-1.83.14-3.68.27-5.53.41-1.4.11-2.8.21-4.21.32-1.83.15-3.67.29-5.53.45-1.4.11-2.8.22-4.21.34-1.83.15-3.67.31-5.53.47-1.39.12-2.8.24-4.21.37-1.83.16-3.67.32-5.53.49-1.39.13-2.79.25-4.2.38-1.82.17-3.66.35-5.53.53-1.39.12-2.79.26-4.2.39-1.83.18-3.67.36-5.54.54l.02,2.73c1.87-.2,3.74-.39,5.61-.57,1.38-.14,2.75-.27,4.13-.41,1.86-.17,3.73-.35,5.6-.52,1.38-.13,2.75-.26,4.13-.38,1.87-.17,3.73-.33,5.6-.49,1.37-.12,2.75-.24,4.13-.35,1.86-.16,3.73-.31,5.6-.46,1.38-.12,2.76-.22,4.14-.33,1.86-.15,3.72-.29,5.59-.43,1.38-.1,2.76-.2,4.14-.3,1.86-.14,3.73-.27,5.6-.4,1.38-.1,2.75-.19,4.13-.28,28.68-1.93,57.39-3.2,86.12-4.02,1.33-.04,2.66-.07,3.98-.11,6.47-.18,12.94-.33,19.41-.46,1.35-.03,2.7-.06,4.05-.09,18.41-.35,36.84-.56,55.27-.67,18.41-.37,36.82-.52,55.22-.42l4.14.03c6.43.05,12.87.13,19.3.25,1.37.02,2.74.05,4.11.08,28.72.57,57.41,1.82,86.05,3.9,1.39.09,2.79.2,4.18.3,1.85.14,3.71.28,5.56.43l4.17.33c1.85.16,3.71.31,5.57.47,1.39.12,2.78.24,4.17.37,1.85.16,3.71.32,5.56.5,1.39.13,2.78.26,4.17.39,1.86.18,3.71.36,5.57.55,1.38.13,2.77.27,4.16.42,1.85.18,3.71.38,5.57.58,1.39.14,2.77.29,4.16.45,1.86.2,3.71.41,5.57.62l.02-1.71c-1.87-.18-3.71-.36-5.54-.54Zm0,0c-1.41-.13-2.81-.27-4.2-.39-1.86-.18-3.71-.36-5.53-.53-1.41-.13-2.81-.25-4.2-.38-1.86-.17-3.7-.33-5.53-.49-1.42-.13-2.82-.25-4.21-.37-1.86-.16-3.7-.32-5.53-.47-1.41-.12-2.82-.23-4.21-.34-1.86-.16-3.7-.3-5.53-.45-1.41-.11-2.81-.21-4.21-.32-1.86-.14-3.7-.27-5.53-.41-1.41-.1-2.81-.19-4.21-.29-3.79-.26-7.56-.51-11.31-.73-3.01-.19-6.02-.36-9.02-.53-.14-.01-.27-.01-.4-.02-1.61-.09-3.22-.17-4.83-.26-.8-.04-1.6-.08-2.41-.12-.81-.04-1.61-.08-2.42-.12-.23-.01-.47-.02-.7-.03-1.73-.08-3.47-.16-5.21-.24-1.41-.06-2.82-.12-4.24-.18-.57-.02-1.14-.05-1.71-.07-1.13-.05-2.28-.09-3.42-.13-1.15-.04-2.3-.08-3.45-.13-.58-.02-1.16-.04-1.74-.06-.58-.02-1.16-.04-1.74-.06-.76-.02-1.52-.05-2.28-.07-.41-.01-.81-.02-1.22-.04-1.17-.03-2.35-.07-3.54-.11-.59-.01-1.18-.03-1.78-.05-1.18-.03-2.38-.06-3.58-.1-.29,0-.57-.01-.86-.02-.92-.02-1.84-.05-2.77-.07h-.03c-.94-.02-1.88-.05-2.83-.07-.94-.02-1.89-.04-2.84-.06-1.79-.04-3.6-.08-5.42-.12-1.09-.02-2.19-.04-3.3-.06-.98-.02-1.97-.03-2.96-.05-1.38-.03-2.77-.05-4.18-.07-.37-.01-.75-.01-1.13-.02-.98-.02-1.97-.03-2.97-.04-.99-.01-1.99-.02-3-.04-1.13-.02-2.27-.03-3.42-.04-.13-.01-.27-.01-.4-.01-.31,0-.62-.01-.93-.01-.81,0-1.62-.02-2.43-.03-1.64-.01-3.29-.03-4.95-.05-1.39-.01-2.8-.02-4.22-.04h-.28c-.94,0-1.89-.02-2.84-.02-.5,0-.99-.01-1.49-.01-1.46-.01-2.93-.02-4.41-.03-.74,0-1.48,0-2.23,0-.99-.01-1.99-.02-3-.02-1.26-.01-2.54-.01-3.82-.02-.77,0-1.54,0-2.31-.01-2.33-.01-4.69-.02-7.08-.02-.79,0-1.59-.01-2.4-.01-1,0-2.01,0-3.03-.01-2.85,0-5.74-.01-8.69-.01-4.42-.01-8.95-.01-13.6-.01-9.75,0-18.96.01-27.73.04-2.06,0-4.08,0-6.09.02h-.98c-.78.01-1.55.01-2.32.01-1.28.01-2.56.01-3.82.02-1.01,0-2.01.01-3,.02-.75,0-1.49,0-2.23,0-1.48.01-2.95.02-4.41.03-.5,0-1,.01-1.49.01-.95,0-1.9.01-2.84.02h-.28c-1.41.02-2.82.03-4.21.04-1.66.02-3.31.04-4.94.05-.82.01-1.63.02-2.44.03-.3,0-.6.01-.9.01-1.29.02-2.58.03-3.86.05-1,.02-2.01.03-3,.04-1,.01-1.99.02-2.97.04-.38.01-.75.01-1.12.02-1.41.02-2.8.04-4.18.07-.99.02-1.98.03-2.96.05-1.65.03-3.28.06-4.89.09-.73.02-1.45.03-2.17.05-.62.01-1.24.02-1.86.04-.88.02-1.76.04-2.64.06-.95.02-1.89.04-2.83.07h-.04c-.92.02-1.84.04-2.76.07-.35.01-.71.02-1.06.03-1.14.03-2.27.06-3.39.09-.6.02-1.19.03-1.78.05-1.04.03-2.08.06-3.11.1-.17,0-.33,0-.5,0-.17,0-.34.01-.51.02-.97.02-1.94.06-2.91.09-.59.02-1.17.04-1.75.06-.58.02-1.15.04-1.73.06-1.15.04-2.3.09-3.45.13-.07,0-.15.01-.22.01-1.07.03-2.14.08-3.21.12-1.99.08-3.97.16-5.94.25-1.74.08-3.48.16-5.21.24-.23.01-.47.02-.7.03-.81.04-1.61.08-2.42.12-.81.04-1.61.08-2.41.12-1.61.09-3.22.17-4.83.26-.13.01-.27.01-.41.02-3.06.17-6.12.35-9.18.54-.29.02-.58.03-.87.05-1.56.1-3.12.19-4.69.3-1.85.12-3.71.24-5.58.37-1.4.09-2.8.19-4.21.29-1.83.14-3.68.27-5.53.41-1.4.11-2.8.21-4.21.32-1.83.15-3.67.29-5.53.45-1.4.11-2.8.22-4.21.34-1.83.15-3.67.31-5.53.47-1.39.12-2.8.24-4.21.37-1.83.16-3.67.32-5.53.49-1.39.13-2.79.25-4.2.38-1.82.17-3.66.35-5.53.53l.02,2.68c1.86-.17,3.73-.35,5.6-.52,1.38-.13,2.75-.26,4.13-.38,1.87-.17,3.73-.33,5.6-.49,1.37-.12,2.75-.24,4.13-.35,1.86-.16,3.73-.31,5.6-.46,1.38-.12,2.76-.22,4.14-.33,1.86-.15,3.72-.29,5.59-.43,1.38-.1,2.76-.2,4.14-.3,1.86-.14,3.73-.27,5.6-.4,1.38-.1,2.75-.19,4.13-.28,28.68-1.93,57.39-3.2,86.12-4.02,1.33-.04,2.66-.07,3.98-.11,6.47-.18,12.94-.33,19.41-.46,1.35-.03,2.7-.06,4.05-.09,18.41-.35,36.84-.56,55.27-.67,18.41-.37,36.82-.52,55.22-.42l4.14.03c6.43.05,12.87.13,19.3.25,1.37.02,2.74.05,4.11.08,28.72.57,57.41,1.82,86.05,3.9,1.39.09,2.79.2,4.18.3,1.85.14,3.71.28,5.56.43l4.17.33c1.85.16,3.71.31,5.57.47,1.39.12,2.78.24,4.17.37,1.85.16,3.71.32,5.56.5,1.39.13,2.78.26,4.17.39,1.86.18,3.71.36,5.57.55,1.38.13,2.77.27,4.16.42,1.85.18,3.71.38,5.57.58,1.39.14,2.77.29,4.16.45,1.86.2,3.71.41,5.57.62l.02-1.71c-1.87-.18-3.71-.36-5.54-.54Zm0,0c-1.41-.13-2.81-.27-4.2-.39-1.86-.18-3.71-.36-5.53-.53-1.41-.13-2.81-.25-4.2-.38-1.86-.17-3.7-.33-5.53-.49-1.42-.13-2.82-.25-4.21-.37-1.86-.16-3.7-.32-5.53-.47-1.41-.12-2.82-.23-4.21-.34-1.86-.16-3.7-.3-5.53-.45-1.41-.11-2.81-.21-4.21-.32-1.86-.14-3.7-.27-5.53-.41-1.41-.1-2.81-.19-4.21-.29-3.79-.26-7.56-.51-11.31-.73-3.01-.19-6.02-.36-9.02-.53-.14-.01-.27-.01-.4-.02-1.61-.09-3.22-.17-4.83-.26-.8-.04-1.6-.08-2.41-.12-.81-.04-1.61-.08-2.42-.12-.23-.01-.47-.02-.7-.03-1.73-.08-3.47-.16-5.21-.24-1.41-.06-2.82-.12-4.24-.18-.57-.02-1.14-.05-1.71-.07-1.13-.05-2.28-.09-3.42-.13-1.15-.04-2.3-.08-3.45-.13-.58-.02-1.16-.04-1.74-.06-.58-.02-1.16-.04-1.74-.06-.76-.02-1.52-.05-2.28-.07-.41-.01-.81-.02-1.22-.04-1.17-.03-2.35-.07-3.54-.11-.59-.01-1.18-.03-1.78-.05-1.18-.03-2.38-.06-3.58-.1-.29,0-.57-.01-.86-.02-.92-.02-1.84-.05-2.77-.07h-.03c-.94-.02-1.88-.05-2.83-.07-.94-.02-1.89-.04-2.84-.06-1.79-.04-3.6-.08-5.42-.12-1.09-.02-2.19-.04-3.3-.06-.98-.02-1.97-.03-2.96-.05-1.38-.03-2.77-.05-4.18-.07-.37-.01-.75-.01-1.13-.02-.98-.02-1.97-.03-2.97-.04-.99-.01-1.99-.02-3-.04-1.13-.02-2.27-.03-3.42-.04-.13-.01-.27-.01-.4-.01-.31,0-.62-.01-.93-.01-.81,0-1.62-.02-2.43-.03-1.64-.01-3.29-.03-4.95-.05-1.39-.01-2.8-.02-4.22-.04h-.28c-.94,0-1.89-.02-2.84-.02-.5,0-.99-.01-1.49-.01-1.46-.01-2.93-.02-4.41-.03-.74,0-1.48,0-2.23,0-.99-.01-1.99-.02-3-.02-1.26-.01-2.54-.01-3.82-.02-.77,0-1.54,0-2.31-.01-2.33-.01-4.69-.02-7.08-.02-.79,0-1.59-.01-2.4-.01-1,0-2.01,0-3.03-.01-2.85,0-5.74-.01-8.69-.01-4.42-.01-8.95-.01-13.6-.01-9.75,0-18.96.01-27.73.04-2.06,0-4.08,0-6.09.02h-.98c-.78.01-1.55.01-2.32.01-1.28.01-2.56.01-3.82.02-1.01,0-2.01.01-3,.02-.75,0-1.49,0-2.23,0-1.48.01-2.95.02-4.41.03-.5,0-1,.01-1.49.01-.95,0-1.9.01-2.84.02h-.28c-1.41.02-2.82.03-4.21.04-1.66.02-3.31.04-4.94.05-.82.01-1.63.02-2.44.03-.3,0-.6.01-.9.01-1.29.02-2.58.03-3.86.05-1,.02-2.01.03-3,.04-1,.01-1.99.02-2.97.04-.38.01-.75.01-1.12.02-1.41.02-2.8.04-4.18.07-.99.02-1.98.03-2.96.05-1.65.03-3.28.06-4.89.09-.73.02-1.45.03-2.17.05-.62.01-1.24.02-1.86.04-.88.02-1.76.04-2.64.06-.95.02-1.89.04-2.83.07h-.04c-.92.02-1.84.04-2.76.07-.35.01-.71.02-1.06.03-1.14.03-2.27.06-3.39.09-.6.02-1.19.03-1.78.05-1.04.03-2.08.06-3.11.1-.17,0-.33,0-.5,0-.17,0-.34.01-.51.02-.97.02-1.94.06-2.91.09-.59.02-1.17.04-1.75.06-.58.02-1.15.04-1.73.06-1.15.04-2.3.09-3.45.13-.07,0-.15.01-.22.01-1.07.03-2.14.08-3.21.12-1.99.08-3.97.16-5.94.25-1.74.08-3.48.16-5.21.24-.23.01-.47.02-.7.03-.81.04-1.61.08-2.42.12-.81.04-1.61.08-2.41.12-1.61.09-3.22.17-4.83.26-.13.01-.27.01-.41.02-3.06.17-6.12.35-9.18.54-.29.02-.58.03-.87.05-1.56.1-3.12.19-4.69.3-1.85.12-3.71.24-5.58.37-1.4.09-2.8.19-4.21.29-1.83.14-3.68.27-5.53.41-1.4.11-2.8.21-4.21.32-1.83.15-3.67.29-5.53.45-1.4.11-2.8.22-4.21.34-1.83.15-3.67.31-5.53.47-1.39.12-2.8.24-4.21.37-1.83.16-3.67.32-5.53.49-1.39.13-2.79.25-4.2.38-1.82.17-3.66.35-5.53.53l.02,2.68c1.86-.17,3.73-.35,5.6-.52,1.38-.13,2.75-.26,4.13-.38,1.87-.17,3.73-.33,5.6-.49,1.37-.12,2.75-.24,4.13-.35,1.86-.16,3.73-.31,5.6-.46,1.38-.12,2.76-.22,4.14-.33,1.86-.15,3.72-.29,5.59-.43,1.38-.1,2.76-.2,4.14-.3,1.86-.14,3.73-.27,5.6-.4,1.38-.1,2.75-.19,4.13-.28,28.68-1.93,57.39-3.2,86.12-4.02,1.33-.04,2.66-.07,3.98-.11,6.47-.18,12.94-.33,19.41-.46,1.35-.03,2.7-.06,4.05-.09,18.41-.35,36.84-.56,55.27-.67,18.41-.37,36.82-.52,55.22-.42l4.14.03c6.43.05,12.87.13,19.3.25,1.37.02,2.74.05,4.11.08,28.72.57,57.41,1.82,86.05,3.9,1.39.09,2.79.2,4.18.3,1.85.14,3.71.28,5.56.43l4.17.33c1.85.16,3.71.31,5.57.47,1.39.12,2.78.24,4.17.37,1.85.16,3.71.32,5.56.5,1.39.13,2.78.26,4.17.39,1.86.18,3.71.36,5.57.55,1.38.13,2.77.27,4.16.42,1.85.18,3.71.38,5.57.58,1.39.14,2.77.29,4.16.45,1.86.2,3.71.41,5.57.62l.02-1.71c-1.87-.18-3.71-.36-5.54-.54Zm27.83,2.58c.01-1.07-.81-2-1.9-2.1-2.13-.21-4.26-.41-6.39-.6-1.41-.14-2.82-.27-4.24-.4-1.83-.17-3.66-.33-5.49-.49-1.41-.13-2.83-.26-4.25-.37-1.83-.17-3.66-.32-5.49-.47-1.41-.12-2.83-.24-4.25-.35-1.83-.15-3.66-.3-5.49-.44-1.42-.11-2.83-.22-4.25-.32-1.83-.15-3.66-.29-5.49-.42-1.42-.11-2.84-.21-4.26-.3-1.83-.14-3.66-.27-5.49-.39-1.41-.1-2.83-.2-4.25-.29-1.83-.12-3.66-.24-5.49-.35-1.41-.1-2.83-.19-4.25-.27-1.83-.12-3.67-.23-5.5-.33-1.41-.09-2.83-.17-4.24-.24-28.63-1.65-57.3-2.7-85.97-3.26-1.42-.04-2.84-.06-4.26-.08-5.54-.11-11.09-.19-16.63-.25-.84-.01-1.68-.02-2.52-.03-1.43-.02-2.87-.04-4.3-.06-36.75-.47-73.49-1.12-110.24-1.11-1.47,0-2.93,0-4.4.01-6.34.01-12.69.04-19.03.1-1.46.01-2.92.03-4.38.04-13.69.16-27.38.43-41.08.87-14.95.48-29.9,1.24-44.83,2.21-1.42.08-2.85.18-4.28.28-1.82.12-3.64.24-5.46.38-1.43.09-2.86.2-4.29.31-1.82.13-3.64.26-5.46.4-1.43.11-2.86.22-4.28.34-1.82.14-3.64.29-5.46.44-1.43.12-2.85.23-4.28.36-1.82.15-3.64.31-5.46.47-1.43.12-2.86.25-4.29.38-1.82.16-3.63.32-5.45.49-1.43.13-2.86.27-4.29.4-1.82.17-3.64.35-5.46.53-1.42.13-2.85.27-4.27.42-1.83.17-3.65.35-5.47.54-1.42.14-2.85.29-4.27.43-2.14.22-4.29.44-6.43.67-1.44.15-2.58,1.37-2.58,2.85.02.11.04,24.6.06,24.7.06,1.55,1.36,2.76,2.92,2.7,2.11-.08,4.55-.18,7.25-.29,1.09-.04,2.22-.08,3.39-.13,2-.08,4.11-.16,6.31-.24,1.11-.04,2.24-.09,3.39-.13,2.05-.08,4.15-.16,6.3-.24,1.12-.05,2.25-.09,3.39-.14,2.07-.07,4.17-.15,6.3-.24,1.12-.04,2.25-.08,3.38-.12,2.1-.08,4.21-.16,6.32-.24,1.12-.05,2.24-.09,3.37-.13,2.12-.08,4.23-.16,6.32-.24,1.12-.04,2.25-.08,3.36-.13,2.14-.08,4.26-.16,6.33-.23,1.14-.05,2.26-.09,3.36-.13,2.17-.08,4.29-.16,6.33-.23,1.14-.05,2.26-.09,3.35-.13,5.59-.2,10.47-.38,14.25-.51.81-.03,1.61-.06,2.42-.09h0c2.25-.08,4.51-.16,6.77-.24h.01c4.55-.16,9.11-.31,13.69-.45,2.12-.07,4.24-.14,6.37-.2,5.79-.18,11.59-.35,17.41-.5,1.87-.05,3.75-.1,5.63-.15,6.41-.16,12.83-.31,19.26-.45,1.52-.03,3.03-.07,4.55-.09,6.52-.14,13.04-.26,19.56-.36,1.07-.02,2.14-.03,3.21-.05,18.71-.28,37.35-.43,55.73-.44,17.15-.09,36.03.07,55.82.4h.01c1.01.02,2.02.03,3.04.05,6.46.11,13.02.24,19.65.38,1.5.03,3.01.07,4.52.1,6.38.14,12.81.3,19.28.46,1.87.05,3.73.1,5.61.15h0c5.79.15,11.6.32,17.41.48,2.12.06,4.24.12,6.36.19,4.58.13,9.16.27,13.72.41l6.75.21c5.59.18,11.16.35,16.68.53,1.13.04,2.25.08,3.37.12,2.11.06,4.22.13,6.32.2,1.13.04,2.25.08,3.37.12,2.12.06,4.22.14,6.32.2,1.13.04,2.25.08,3.37.12,2.12.07,4.22.14,6.31.21,1.13.04,2.26.08,3.38.12,2.12.07,4.22.14,6.31.21,1.13.04,2.26.08,3.39.12,2.11.07,4.22.14,6.3.21,1.14.04,2.26.08,3.39.12,2.11.07,4.21.14,6.29.22,1.14.03,2.28.07,3.41.11,2.12.07,4.21.14,6.28.22,1.15.03,2.28.07,3.41.11,2.45.08,4.87.16,7.26.24,1.31.06,2.41-1,2.39-2.3-.05-8.2-.08-16.4-.19-24.59Zm-2.11,22.36v2.23c-.74-.03-1.48-.06-2.22-.08l-.09.08v-.09c0-.78,0-1.56.02-2.34-1.62-.08-3.25-.16-4.87-.23-1.18-.06-2.36-.11-3.54-.16-2.05-.09-4.1-.18-6.16-.26-1.18-.05-2.36-.1-3.54-.14-2.06-.08-4.1-.16-6.16-.23h-.01c-1.18-.04-2.36-.08-3.53-.12-2.06-.07-4.12-.14-6.17-.2-1.18-.04-2.35-.07-3.52-.1-2.06-.06-4.13-.12-6.19-.17-1.17-.03-2.34-.06-3.51-.08-2.06-.06-4.12-.11-6.19-.14-1.16-.04-2.33-.06-3.5-.08-2.07-.05-4.14-.08-6.21-.12-1.16-.02-2.33-.04-3.49-.06-2.07-.03-4.14-.06-6.21-.09-1.16-.02-2.32-.03-3.49-.04-56.3-.7-112.77.29-168.85.41-55.81.01-112.89-1.32-168.86-.62-1.16.01-2.33.02-3.49.04-2.07.03-4.13.06-6.2.1-1.17.02-2.33.04-3.5.06-1.21.02-2.41.05-3.62.07-.86.02-1.72.03-2.58.05-1.17.03-2.34.05-3.51.08-2.06.04-4.12.09-6.18.14-1.17.03-2.35.06-3.52.09-2.06.05-4.12.1-6.18.16-1.18.03-2.36.06-3.53.1-2.05.06-4.11.12-6.16.18-1.18.03-2.36.07-3.54.11-2.05.06-4.11.12-6.16.19-1.18.03-2.37.07-3.55.11-2.05.07-4.11.13-6.16.2-1.19.04-2.37.08-3.56.12-1.43.05-2.87.09-4.3.14v2.81s-.01.11-.01.11l-.11-.1c-.9.03-1.8.07-2.71.1v-2.72l-.1-.1h.1v-21.77c2.11-.22,4.19-.43,6.25-.64l.11,2.81c1.37-.16,2.74-.31,4.11-.46,1.87-.21,3.75-.41,5.62-.6,1.37-.15,2.74-.29,4.11-.42,1.87-.2,3.74-.39,5.61-.57,1.38-.14,2.75-.27,4.13-.41,1.86-.17,3.73-.35,5.6-.52,1.38-.13,2.75-.26,4.13-.38,1.87-.17,3.73-.33,5.6-.49,1.37-.12,2.75-.24,4.13-.35,1.86-.16,3.73-.31,5.6-.46,1.38-.12,2.76-.22,4.14-.33,1.86-.15,3.72-.29,5.59-.43,1.38-.1,2.76-.2,4.14-.3,1.86-.14,3.73-.27,5.6-.4,1.38-.1,2.75-.19,4.13-.28,28.68-1.93,57.39-3.2,86.12-4.02,1.33-.04,2.66-.07,3.98-.11,6.47-.18,12.94-.33,19.41-.46,1.35-.03,2.7-.06,4.05-.09,18.41-.35,36.84-.56,55.27-.67,18.41-.37,36.82-.52,55.22-.42l4.14.03c6.43.05,12.87.13,19.3.25,1.37.02,2.74.05,4.11.08,28.72.57,57.41,1.82,86.05,3.9,1.39.09,2.79.2,4.18.3,1.85.14,3.71.28,5.56.43l4.17.33c1.85.16,3.71.31,5.57.47,1.39.12,2.78.24,4.17.37,1.85.16,3.71.32,5.56.5,1.39.13,2.78.26,4.17.39,1.86.18,3.71.36,5.57.55,1.38.13,2.77.27,4.16.42,1.85.18,3.71.38,5.57.58,1.39.14,2.77.29,4.16.45,1.86.2,3.71.41,5.57.62,1.38.16,2.77.32,4.15.48,1.86.22,3.72.44,5.58.67,1.38.16,2.76.33,4.13.51l.08-1.97c2.06.21,4.15.42,6.26.64v22.28h.08l-.08.08Zm-25.72-24.94c-1.41-.13-2.81-.27-4.2-.39-1.86-.18-3.71-.36-5.53-.53-1.41-.13-2.81-.25-4.2-.38-1.86-.17-3.7-.33-5.53-.49-1.42-.13-2.82-.25-4.21-.37-1.86-.16-3.7-.32-5.53-.47-1.41-.12-2.82-.23-4.21-.34-1.86-.16-3.7-.3-5.53-.45-1.41-.11-2.81-.21-4.21-.32-1.86-.14-3.7-.27-5.53-.41-1.41-.1-2.81-.19-4.21-.29-3.79-.26-7.56-.51-11.31-.73-3.01-.19-6.02-.36-9.02-.53-.14-.01-.27-.01-.4-.02-1.61-.09-3.22-.17-4.83-.26-.8-.04-1.6-.08-2.41-.12-.81-.04-1.61-.08-2.42-.12-.23-.01-.47-.02-.7-.03-1.73-.08-3.47-.16-5.21-.24-1.41-.06-2.82-.12-4.24-.18-.57-.02-1.14-.05-1.71-.07-1.13-.05-2.28-.09-3.42-.13-1.15-.04-2.3-.08-3.45-.13-.58-.02-1.16-.04-1.74-.06-.58-.02-1.16-.04-1.74-.06-.76-.02-1.52-.05-2.28-.07-.41-.01-.81-.02-1.22-.04-1.17-.03-2.35-.07-3.54-.11-.59-.01-1.18-.03-1.78-.05-1.18-.03-2.38-.06-3.58-.1-.29,0-.57-.01-.86-.02-.92-.02-1.84-.05-2.77-.07h-.03c-.94-.02-1.88-.05-2.83-.07-.94-.02-1.89-.04-2.84-.06-1.79-.04-3.6-.08-5.42-.12-1.09-.02-2.19-.04-3.3-.06-.98-.02-1.97-.03-2.96-.05-1.38-.03-2.77-.05-4.18-.07-.37-.01-.75-.01-1.13-.02-.98-.02-1.97-.03-2.97-.04-.99-.01-1.99-.02-3-.04-1.13-.02-2.27-.03-3.42-.04-.13-.01-.27-.01-.4-.01-.31,0-.62-.01-.93-.01-.81,0-1.62-.02-2.43-.03-1.64-.01-3.29-.03-4.95-.05-1.39-.01-2.8-.02-4.22-.04h-.28c-.94,0-1.89-.02-2.84-.02-.5,0-.99-.01-1.49-.01-1.46-.01-2.93-.02-4.41-.03-.74,0-1.48,0-2.23,0-.99-.01-1.99-.02-3-.02-1.26-.01-2.54-.01-3.82-.02-.77,0-1.54,0-2.31-.01-2.33-.01-4.69-.02-7.08-.02-.79,0-1.59-.01-2.4-.01-1,0-2.01,0-3.03-.01-2.85,0-5.74-.01-8.69-.01-4.42-.01-8.95-.01-13.6-.01-9.75,0-18.96.01-27.73.04-2.06,0-4.08,0-6.09.02h-.98c-.78.01-1.55.01-2.32.01-1.28.01-2.56.01-3.82.02-1.01,0-2.01.01-3,.02-.75,0-1.49,0-2.23,0-1.48.01-2.95.02-4.41.03-.5,0-1,.01-1.49.01-.95,0-1.9.01-2.84.02h-.28c-1.41.02-2.82.03-4.21.04-1.66.02-3.31.04-4.94.05-.82.01-1.63.02-2.44.03-.3,0-.6.01-.9.01-1.29.02-2.58.03-3.86.05-1,.02-2.01.03-3,.04-1,.01-1.99.02-2.97.04-.38.01-.75.01-1.12.02-1.41.02-2.8.04-4.18.07-.99.02-1.98.03-2.96.05-1.65.03-3.28.06-4.89.09-.73.02-1.45.03-2.17.05-.62.01-1.24.02-1.86.04-.88.02-1.76.04-2.64.06-.95.02-1.89.04-2.83.07h-.04c-.92.02-1.84.04-2.76.07-.35.01-.71.02-1.06.03-1.14.03-2.27.06-3.39.09-.6.02-1.19.03-1.78.05-1.04.03-2.08.06-3.11.1-.17,0-.33,0-.5,0-.17,0-.34.01-.51.02-.97.02-1.94.06-2.91.09-.59.02-1.17.04-1.75.06-.58.02-1.15.04-1.73.06-1.15.04-2.3.09-3.45.13-.07,0-.15.01-.22.01-1.07.03-2.14.08-3.21.12-1.99.08-3.97.16-5.94.25-1.74.08-3.48.16-5.21.24-.23.01-.47.02-.7.03-.81.04-1.61.08-2.42.12-.81.04-1.61.08-2.41.12-1.61.09-3.22.17-4.83.26-.13.01-.27.01-.41.02-3.06.17-6.12.35-9.18.54-.29.02-.58.03-.87.05-1.56.1-3.12.19-4.69.3-1.85.12-3.71.24-5.58.37-1.4.09-2.8.19-4.21.29-1.83.14-3.68.27-5.53.41-1.4.11-2.8.21-4.21.32-1.83.15-3.67.29-5.53.45-1.4.11-2.8.22-4.21.34-1.83.15-3.67.31-5.53.47-1.39.12-2.8.24-4.21.37-1.83.16-3.67.32-5.53.49-1.39.13-2.79.25-4.2.38-1.82.17-3.66.35-5.53.53l.02,2.68c1.86-.17,3.73-.35,5.6-.52,1.38-.13,2.75-.26,4.13-.38,1.87-.17,3.73-.33,5.6-.49,1.37-.12,2.75-.24,4.13-.35,1.86-.16,3.73-.31,5.6-.46,1.38-.12,2.76-.22,4.14-.33,1.86-.15,3.72-.29,5.59-.43,1.38-.1,2.76-.2,4.14-.3,1.86-.14,3.73-.27,5.6-.4,1.38-.1,2.75-.19,4.13-.28,28.68-1.93,57.39-3.2,86.12-4.02,1.33-.04,2.66-.07,3.98-.11,6.47-.18,12.94-.33,19.41-.46,1.35-.03,2.7-.06,4.05-.09,18.41-.35,36.84-.56,55.27-.67,18.41-.37,36.82-.52,55.22-.42l4.14.03c6.43.05,12.87.13,19.3.25,1.37.02,2.74.05,4.11.08,28.72.57,57.41,1.82,86.05,3.9,1.39.09,2.79.2,4.18.3,1.85.14,3.71.28,5.56.43l4.17.33c1.85.16,3.71.31,5.57.47,1.39.12,2.78.24,4.17.37,1.85.16,3.71.32,5.56.5,1.39.13,2.78.26,4.17.39,1.86.18,3.71.36,5.57.55,1.38.13,2.77.27,4.16.42,1.85.18,3.71.38,5.57.58,1.39.14,2.77.29,4.16.45,1.86.2,3.71.41,5.57.62l.02-1.71c-1.87-.18-3.71-.36-5.54-.54Zm0,0c-1.41-.13-2.81-.27-4.2-.39-1.86-.18-3.71-.36-5.53-.53-1.41-.13-2.81-.25-4.2-.38-1.86-.17-3.7-.33-5.53-.49-1.42-.13-2.82-.25-4.21-.37-1.86-.16-3.7-.32-5.53-.47-1.41-.12-2.82-.23-4.21-.34-1.86-.16-3.7-.3-5.53-.45-1.41-.11-2.81-.21-4.21-.32-1.86-.14-3.7-.27-5.53-.41-1.41-.1-2.81-.19-4.21-.29-3.79-.26-7.56-.51-11.31-.73-3.01-.19-6.02-.36-9.02-.53-.14-.01-.27-.01-.4-.02-1.61-.09-3.22-.17-4.83-.26-.8-.04-1.6-.08-2.41-.12-.81-.04-1.61-.08-2.42-.12-.23-.01-.47-.02-.7-.03-1.73-.08-3.47-.16-5.21-.24-1.41-.06-2.82-.12-4.24-.18-.57-.02-1.14-.05-1.71-.07-1.13-.05-2.28-.09-3.42-.13-1.15-.04-2.3-.08-3.45-.13-.58-.02-1.16-.04-1.74-.06-.58-.02-1.16-.04-1.74-.06-.76-.02-1.52-.05-2.28-.07-.41-.01-.81-.02-1.22-.04-1.17-.03-2.35-.07-3.54-.11-.59-.01-1.18-.03-1.78-.05-1.18-.03-2.38-.06-3.58-.1-.29,0-.57-.01-.86-.02-.92-.02-1.84-.05-2.77-.07h-.03c-.94-.02-1.88-.05-2.83-.07-.94-.02-1.89-.04-2.84-.06-1.79-.04-3.6-.08-5.42-.12-1.09-.02-2.19-.04-3.3-.06-.98-.02-1.97-.03-2.96-.05-1.38-.03-2.77-.05-4.18-.07-.37-.01-.75-.01-1.13-.02-.98-.02-1.97-.03-2.97-.04-.99-.01-1.99-.02-3-.04-1.13-.02-2.27-.03-3.42-.04-.13-.01-.27-.01-.4-.01-.31,0-.62-.01-.93-.01-.81,0-1.62-.02-2.43-.03-1.64-.01-3.29-.03-4.95-.05-1.39-.01-2.8-.02-4.22-.04h-.28c-.94,0-1.89-.02-2.84-.02-.5,0-.99-.01-1.49-.01-1.46-.01-2.93-.02-4.41-.03-.74,0-1.48,0-2.23,0-.99-.01-1.99-.02-3-.02-1.26-.01-2.54-.01-3.82-.02-.77,0-1.54,0-2.31-.01-2.33-.01-4.69-.02-7.08-.02-.79,0-1.59-.01-2.4-.01-1,0-2.01,0-3.03-.01-2.85,0-5.74-.01-8.69-.01-4.42-.01-8.95-.01-13.6-.01-9.75,0-18.96.01-27.73.04-2.06,0-4.08,0-6.09.02h-.98c-.78.01-1.55.01-2.32.01-1.28.01-2.56.01-3.82.02-1.01,0-2.01.01-3,.02-.75,0-1.49,0-2.23,0-1.48.01-2.95.02-4.41.03-.5,0-1,.01-1.49.01-.95,0-1.9.01-2.84.02h-.28c-1.41.02-2.82.03-4.21.04-1.66.02-3.31.04-4.94.05-.82.01-1.63.02-2.44.03-.3,0-.6.01-.9.01-1.29.02-2.58.03-3.86.05-1,.02-2.01.03-3,.04-1,.01-1.99.02-2.97.04-.38.01-.75.01-1.12.02-1.41.02-2.8.04-4.18.07-.99.02-1.98.03-2.96.05-1.65.03-3.28.06-4.89.09-.73.02-1.45.03-2.17.05-.62.01-1.24.02-1.86.04-.88.02-1.76.04-2.64.06-.95.02-1.89.04-2.83.07h-.04c-.92.02-1.84.04-2.76.07-.35.01-.71.02-1.06.03-1.14.03-2.27.06-3.39.09-.6.02-1.19.03-1.78.05-1.04.03-2.08.06-3.11.1-.17,0-.33,0-.5,0-.17,0-.34.01-.51.02-.97.02-1.94.06-2.91.09-.59.02-1.17.04-1.75.06-.58.02-1.15.04-1.73.06-1.15.04-2.3.09-3.45.13-.07,0-.15.01-.22.01-1.07.03-2.14.08-3.21.12-1.99.08-3.97.16-5.94.25-1.74.08-3.48.16-5.21.24-.23.01-.47.02-.7.03-.81.04-1.61.08-2.42.12-.81.04-1.61.08-2.41.12-1.61.09-3.22.17-4.83.26-.13.01-.27.01-.41.02-3.06.17-6.12.35-9.18.54-.29.02-.58.03-.87.05-1.56.1-3.12.19-4.69.3-1.85.12-3.71.24-5.58.37-1.4.09-2.8.19-4.21.29-1.83.14-3.68.27-5.53.41-1.4.11-2.8.21-4.21.32-1.83.15-3.67.29-5.53.45-1.4.11-2.8.22-4.21.34-1.83.15-3.67.31-5.53.47-1.39.12-2.8.24-4.21.37-1.83.16-3.67.32-5.53.49-1.39.13-2.79.25-4.2.38-1.82.17-3.66.35-5.53.53l.02,2.68c1.86-.17,3.73-.35,5.6-.52,1.38-.13,2.75-.26,4.13-.38,1.87-.17,3.73-.33,5.6-.49,1.37-.12,2.75-.24,4.13-.35,1.86-.16,3.73-.31,5.6-.46,1.38-.12,2.76-.22,4.14-.33,1.86-.15,3.72-.29,5.59-.43,1.38-.1,2.76-.2,4.14-.3,1.86-.14,3.73-.27,5.6-.4,1.38-.1,2.75-.19,4.13-.28,28.68-1.93,57.39-3.2,86.12-4.02,1.33-.04,2.66-.07,3.98-.11,6.47-.18,12.94-.33,19.41-.46,1.35-.03,2.7-.06,4.05-.09,18.41-.35,36.84-.56,55.27-.67,18.41-.37,36.82-.52,55.22-.42l4.14.03c6.43.05,12.87.13,19.3.25,1.37.02,2.74.05,4.11.08,28.72.57,57.41,1.82,86.05,3.9,1.39.09,2.79.2,4.18.3,1.85.14,3.71.28,5.56.43l4.17.33c1.85.16,3.71.31,5.57.47,1.39.12,2.78.24,4.17.37,1.85.16,3.71.32,5.56.5,1.39.13,2.78.26,4.17.39,1.86.18,3.71.36,5.57.55,1.38.13,2.77.27,4.16.42,1.85.18,3.71.38,5.57.58,1.39.14,2.77.29,4.16.45,1.86.2,3.71.41,5.57.62l.02-1.71c-1.87-.18-3.71-.36-5.54-.54Zm9.73.95c-1.41-.13-2.81-.27-4.19-.41-1.87-.18-3.71-.36-5.54-.54-1.41-.13-2.81-.27-4.2-.39-1.86-.18-3.71-.36-5.53-.53-1.41-.13-2.81-.25-4.2-.38-1.86-.17-3.7-.33-5.53-.49-1.42-.13-2.82-.25-4.21-.37-1.86-.16-3.7-.32-5.53-.47-1.41-.12-2.82-.23-4.21-.34-1.86-.16-3.7-.3-5.53-.45-1.41-.11-2.81-.21-4.21-.32-1.86-.14-3.7-.27-5.53-.41-1.41-.1-2.81-.19-4.21-.29-3.79-.26-7.56-.51-11.31-.73-3.01-.19-6.02-.36-9.02-.53-.14-.01-.27-.01-.4-.02-1.61-.09-3.22-.17-4.83-.26-.8-.04-1.6-.08-2.41-.12-.81-.04-1.61-.08-2.42-.12-.23-.01-.47-.02-.7-.03-1.73-.08-3.47-.16-5.21-.24-1.41-.06-2.82-.12-4.24-.18-.57-.02-1.14-.05-1.71-.07-1.13-.05-2.28-.09-3.42-.13-1.15-.04-2.3-.08-3.45-.13-.58-.02-1.16-.04-1.74-.06-.58-.02-1.16-.04-1.74-.06-.76-.02-1.52-.05-2.28-.07-.41-.01-.81-.02-1.22-.04-1.17-.03-2.35-.07-3.54-.11-.59-.01-1.18-.03-1.78-.05-1.18-.03-2.38-.06-3.58-.1-.29,0-.57-.01-.86-.02-.92-.02-1.84-.05-2.77-.07h-.03c-.94-.02-1.88-.05-2.83-.07-.94-.02-1.89-.04-2.84-.06-1.79-.04-3.6-.08-5.42-.12-1.09-.02-2.19-.04-3.3-.06-.98-.02-1.97-.03-2.96-.05-1.38-.03-2.77-.05-4.18-.07-.37-.01-.75-.01-1.13-.02-.98-.02-1.97-.03-2.97-.04-.99-.01-1.99-.02-3-.04-1.13-.02-2.27-.03-3.42-.04-.13-.01-.27-.01-.4-.01-.31,0-.62-.01-.93-.01-.81,0-1.62-.02-2.43-.03-1.64-.01-3.29-.03-4.95-.05-1.39-.01-2.8-.02-4.22-.04h-.28c-.94,0-1.89-.02-2.84-.02-.5,0-.99-.01-1.49-.01-1.46-.01-2.93-.02-4.41-.03-.74,0-1.48,0-2.23,0-.99-.01-1.99-.02-3-.02-1.26-.01-2.54-.01-3.82-.02-.77,0-1.54,0-2.31-.01-2.33-.01-4.69-.02-7.08-.02-.79,0-1.59-.01-2.4-.01-1,0-2.01,0-3.03-.01-2.85,0-5.74-.01-8.69-.01-4.42-.01-8.95-.01-13.6-.01-9.75,0-18.96.01-27.73.04-2.06,0-4.08,0-6.09.02h-.98c-.78.01-1.55.01-2.32.01-1.28.01-2.56.01-3.82.02-1.01,0-2.01.01-3,.02-.75,0-1.49,0-2.23,0-1.48.01-2.95.02-4.41.03-.5,0-1,.01-1.49.01-.95,0-1.9.01-2.84.02h-.28c-1.41.02-2.82.03-4.21.04-1.66.02-3.31.04-4.94.05-.82.01-1.63.02-2.44.03-.3,0-.6.01-.9.01-1.29.02-2.58.03-3.86.05-1,.02-2.01.03-3,.04-1,.01-1.99.02-2.97.04-.38.01-.75.01-1.12.02-1.41.02-2.8.04-4.18.07-.99.02-1.98.03-2.96.05-1.65.03-3.28.06-4.89.09-.73.02-1.45.03-2.17.05-.62.01-1.24.02-1.86.04-.88.02-1.76.04-2.64.06-.95.02-1.89.04-2.83.07h-.04c-.92.02-1.84.04-2.76.07-.35.01-.71.02-1.06.03-1.14.03-2.27.06-3.39.09-.6.02-1.19.03-1.78.05-1.04.03-2.08.06-3.11.1-.17,0-.33,0-.5,0-.17,0-.34.01-.51.02-.97.02-1.94.06-2.91.09-.59.02-1.17.04-1.75.06-.58.02-1.15.04-1.73.06-1.15.04-2.3.09-3.45.13-.07,0-.15.01-.22.01-1.07.03-2.14.08-3.21.12-1.99.08-3.97.16-5.94.25-1.74.08-3.48.16-5.21.24-.23.01-.47.02-.7.03-.81.04-1.61.08-2.42.12-.81.04-1.61.08-2.41.12-1.61.09-3.22.17-4.83.26-.13.01-.27.01-.41.02-3.06.17-6.12.35-9.18.54-.29.02-.58.03-.87.05-1.56.1-3.12.19-4.69.3-1.85.12-3.71.24-5.58.37-1.4.09-2.8.19-4.21.29-1.83.14-3.68.27-5.53.41-1.4.11-2.8.21-4.21.32-1.83.15-3.67.29-5.53.45-1.4.11-2.8.22-4.21.34-1.83.15-3.67.31-5.53.47-1.39.12-2.8.24-4.21.37-1.83.16-3.67.32-5.53.49-1.39.13-2.79.25-4.2.38-1.82.17-3.66.35-5.53.53-1.39.12-2.79.26-4.2.39-1.83.18-3.67.36-5.54.54l.02,2.73c1.87-.2,3.74-.39,5.61-.57,1.38-.14,2.75-.27,4.13-.41,1.86-.17,3.73-.35,5.6-.52,1.38-.13,2.75-.26,4.13-.38,1.87-.17,3.73-.33,5.6-.49,1.37-.12,2.75-.24,4.13-.35,1.86-.16,3.73-.31,5.6-.46,1.38-.12,2.76-.22,4.14-.33,1.86-.15,3.72-.29,5.59-.43,1.38-.1,2.76-.2,4.14-.3,1.86-.14,3.73-.27,5.6-.4,1.38-.1,2.75-.19,4.13-.28,28.68-1.93,57.39-3.2,86.12-4.02,1.33-.04,2.66-.07,3.98-.11,6.47-.18,12.94-.33,19.41-.46,1.35-.03,2.7-.06,4.05-.09,18.41-.35,36.84-.56,55.27-.67,18.41-.37,36.82-.52,55.22-.42l4.14.03c6.43.05,12.87.13,19.3.25,1.37.02,2.74.05,4.11.08,28.72.57,57.41,1.82,86.05,3.9,1.39.09,2.79.2,4.18.3,1.85.14,3.71.28,5.56.43l4.17.33c1.85.16,3.71.31,5.57.47,1.39.12,2.78.24,4.17.37,1.85.16,3.71.32,5.56.5,1.39.13,2.78.26,4.17.39,1.86.18,3.71.36,5.57.55,1.38.13,2.77.27,4.16.42,1.85.18,3.71.38,5.57.58,1.39.14,2.77.29,4.16.45,1.86.2,3.71.41,5.57.62,1.38.16,2.77.32,4.15.48,1.86.22,3.72.44,5.58.67l.03-1.89c-1.87-.19-3.72-.37-5.55-.56Zm0,0c-1.41-.13-2.81-.27-4.19-.41-1.87-.18-3.71-.36-5.54-.54-1.41-.13-2.81-.27-4.2-.39-1.86-.18-3.71-.36-5.53-.53-1.41-.13-2.81-.25-4.2-.38-1.86-.17-3.7-.33-5.53-.49-1.42-.13-2.82-.25-4.21-.37-1.86-.16-3.7-.32-5.53-.47-1.41-.12-2.82-.23-4.21-.34-1.86-.16-3.7-.3-5.53-.45-1.41-.11-2.81-.21-4.21-.32-1.86-.14-3.7-.27-5.53-.41-1.41-.1-2.81-.19-4.21-.29-3.79-.26-7.56-.51-11.31-.73-3.01-.19-6.02-.36-9.02-.53-.14-.01-.27-.01-.4-.02-1.61-.09-3.22-.17-4.83-.26-.8-.04-1.6-.08-2.41-.12-.81-.04-1.61-.08-2.42-.12-.23-.01-.47-.02-.7-.03-1.73-.08-3.47-.16-5.21-.24-1.41-.06-2.82-.12-4.24-.18-.57-.02-1.14-.05-1.71-.07-1.13-.05-2.28-.09-3.42-.13-1.15-.04-2.3-.08-3.45-.13-.58-.02-1.16-.04-1.74-.06-.58-.02-1.16-.04-1.74-.06-.76-.02-1.52-.05-2.28-.07-.41-.01-.81-.02-1.22-.04-1.17-.03-2.35-.07-3.54-.11-.59-.01-1.18-.03-1.78-.05-1.18-.03-2.38-.06-3.58-.1-.29,0-.57-.01-.86-.02-.92-.02-1.84-.05-2.77-.07h-.03c-.94-.02-1.88-.05-2.83-.07-.94-.02-1.89-.04-2.84-.06-1.79-.04-3.6-.08-5.42-.12-1.09-.02-2.19-.04-3.3-.06-.98-.02-1.97-.03-2.96-.05-1.38-.03-2.77-.05-4.18-.07-.37-.01-.75-.01-1.13-.02-.98-.02-1.97-.03-2.97-.04-.99-.01-1.99-.02-3-.04-1.13-.02-2.27-.03-3.42-.04-.13-.01-.27-.01-.4-.01-.31,0-.62-.01-.93-.01-.81,0-1.62-.02-2.43-.03-1.64-.01-3.29-.03-4.95-.05-1.39-.01-2.8-.02-4.22-.04h-.28c-.94,0-1.89-.02-2.84-.02-.5,0-.99-.01-1.49-.01-1.46-.01-2.93-.02-4.41-.03-.74,0-1.48,0-2.23,0-.99-.01-1.99-.02-3-.02-1.26-.01-2.54-.01-3.82-.02-.77,0-1.54,0-2.31-.01-2.33-.01-4.69-.02-7.08-.02-.79,0-1.59-.01-2.4-.01-1,0-2.01,0-3.03-.01-2.85,0-5.74-.01-8.69-.01-4.42-.01-8.95-.01-13.6-.01-9.75,0-18.96.01-27.73.04-2.06,0-4.08,0-6.09.02h-.98c-.78.01-1.55.01-2.32.01-1.28.01-2.56.01-3.82.02-1.01,0-2.01.01-3,.02-.75,0-1.49,0-2.23,0-1.48.01-2.95.02-4.41.03-.5,0-1,.01-1.49.01-.95,0-1.9.01-2.84.02h-.28c-1.41.02-2.82.03-4.21.04-1.66.02-3.31.04-4.94.05-.82.01-1.63.02-2.44.03-.3,0-.6.01-.9.01-1.29.02-2.58.03-3.86.05-1,.02-2.01.03-3,.04-1,.01-1.99.02-2.97.04-.38.01-.75.01-1.12.02-1.41.02-2.8.04-4.18.07-.99.02-1.98.03-2.96.05-1.65.03-3.28.06-4.89.09-.73.02-1.45.03-2.17.05-.62.01-1.24.02-1.86.04-.88.02-1.76.04-2.64.06-.95.02-1.89.04-2.83.07h-.04c-.92.02-1.84.04-2.76.07-.35.01-.71.02-1.06.03-1.14.03-2.27.06-3.39.09-.6.02-1.19.03-1.78.05-1.04.03-2.08.06-3.11.1-.17,0-.33,0-.5,0-.17,0-.34.01-.51.02-.97.02-1.94.06-2.91.09-.59.02-1.17.04-1.75.06-.58.02-1.15.04-1.73.06-1.15.04-2.3.09-3.45.13-.07,0-.15.01-.22.01-1.07.03-2.14.08-3.21.12-1.99.08-3.97.16-5.94.25-1.74.08-3.48.16-5.21.24-.23.01-.47.02-.7.03-.81.04-1.61.08-2.42.12-.81.04-1.61.08-2.41.12-1.61.09-3.22.17-4.83.26-.13.01-.27.01-.41.02-3.06.17-6.12.35-9.18.54-.29.02-.58.03-.87.05-1.56.1-3.12.19-4.69.3-1.85.12-3.71.24-5.58.37-1.4.09-2.8.19-4.21.29-1.83.14-3.68.27-5.53.41-1.4.11-2.8.21-4.21.32-1.83.15-3.67.29-5.53.45-1.4.11-2.8.22-4.21.34-1.83.15-3.67.31-5.53.47-1.39.12-2.8.24-4.21.37-1.83.16-3.67.32-5.53.49-1.39.13-2.79.25-4.2.38-1.82.17-3.66.35-5.53.53-1.39.12-2.79.26-4.2.39-1.83.18-3.67.36-5.54.54l.02,2.73c1.87-.2,3.74-.39,5.61-.57,1.38-.14,2.75-.27,4.13-.41,1.86-.17,3.73-.35,5.6-.52,1.38-.13,2.75-.26,4.13-.38,1.87-.17,3.73-.33,5.6-.49,1.37-.12,2.75-.24,4.13-.35,1.86-.16,3.73-.31,5.6-.46,1.38-.12,2.76-.22,4.14-.33,1.86-.15,3.72-.29,5.59-.43,1.38-.1,2.76-.2,4.14-.3,1.86-.14,3.73-.27,5.6-.4,1.38-.1,2.75-.19,4.13-.28,28.68-1.93,57.39-3.2,86.12-4.02,1.33-.04,2.66-.07,3.98-.11,6.47-.18,12.94-.33,19.41-.46,1.35-.03,2.7-.06,4.05-.09,18.41-.35,36.84-.56,55.27-.67,18.41-.37,36.82-.52,55.22-.42l4.14.03c6.43.05,12.87.13,19.3.25,1.37.02,2.74.05,4.11.08,28.72.57,57.41,1.82,86.05,3.9,1.39.09,2.79.2,4.18.3,1.85.14,3.71.28,5.56.43l4.17.33c1.85.16,3.71.31,5.57.47,1.39.12,2.78.24,4.17.37,1.85.16,3.71.32,5.56.5,1.39.13,2.78.26,4.17.39,1.86.18,3.71.36,5.57.55,1.38.13,2.77.27,4.16.42,1.85.18,3.71.38,5.57.58,1.39.14,2.77.29,4.16.45,1.86.2,3.71.41,5.57.62,1.38.16,2.77.32,4.15.48,1.86.22,3.72.44,5.58.67l.03-1.89c-1.87-.19-3.72-.37-5.55-.56Zm0,0c-1.41-.13-2.81-.27-4.19-.41-1.87-.18-3.71-.36-5.54-.54-1.41-.13-2.81-.27-4.2-.39-1.86-.18-3.71-.36-5.53-.53-1.41-.13-2.81-.25-4.2-.38-1.86-.17-3.7-.33-5.53-.49-1.42-.13-2.82-.25-4.21-.37-1.86-.16-3.7-.32-5.53-.47-1.41-.12-2.82-.23-4.21-.34-1.86-.16-3.7-.3-5.53-.45-1.41-.11-2.81-.21-4.21-.32-1.86-.14-3.7-.27-5.53-.41-1.41-.1-2.81-.19-4.21-.29-3.79-.26-7.56-.51-11.31-.73-3.01-.19-6.02-.36-9.02-.53-.14-.01-.27-.01-.4-.02-1.61-.09-3.22-.17-4.83-.26-.8-.04-1.6-.08-2.41-.12-.81-.04-1.61-.08-2.42-.12-.23-.01-.47-.02-.7-.03-1.73-.08-3.47-.16-5.21-.24-1.41-.06-2.82-.12-4.24-.18-.57-.02-1.14-.05-1.71-.07-1.13-.05-2.28-.09-3.42-.13-1.15-.04-2.3-.08-3.45-.13-.58-.02-1.16-.04-1.74-.06-.58-.02-1.16-.04-1.74-.06-.76-.02-1.52-.05-2.28-.07-.41-.01-.81-.02-1.22-.04-1.17-.03-2.35-.07-3.54-.11-.59-.01-1.18-.03-1.78-.05-1.18-.03-2.38-.06-3.58-.1-.29,0-.57-.01-.86-.02-.92-.02-1.84-.05-2.77-.07h-.03c-.94-.02-1.88-.05-2.83-.07-.94-.02-1.89-.04-2.84-.06-1.79-.04-3.6-.08-5.42-.12-1.09-.02-2.19-.04-3.3-.06-.98-.02-1.97-.03-2.96-.05-1.38-.03-2.77-.05-4.18-.07-.37-.01-.75-.01-1.13-.02-.98-.02-1.97-.03-2.97-.04-.99-.01-1.99-.02-3-.04-1.13-.02-2.27-.03-3.42-.04-.13-.01-.27-.01-.4-.01-.31,0-.62-.01-.93-.01-.81,0-1.62-.02-2.43-.03-1.64-.01-3.29-.03-4.95-.05-1.39-.01-2.8-.02-4.22-.04h-.28c-.94,0-1.89-.02-2.84-.02-.5,0-.99-.01-1.49-.01-1.46-.01-2.93-.02-4.41-.03-.74,0-1.48,0-2.23,0-.99-.01-1.99-.02-3-.02-1.26-.01-2.54-.01-3.82-.02-.77,0-1.54,0-2.31-.01-2.33-.01-4.69-.02-7.08-.02-.79,0-1.59-.01-2.4-.01-1,0-2.01,0-3.03-.01-2.85,0-5.74-.01-8.69-.01-4.42-.01-8.95-.01-13.6-.01-9.75,0-18.96.01-27.73.04-2.06,0-4.08,0-6.09.02h-.98c-.78.01-1.55.01-2.32.01-1.28.01-2.56.01-3.82.02-1.01,0-2.01.01-3,.02-.75,0-1.49,0-2.23,0-1.48.01-2.95.02-4.41.03-.5,0-1,.01-1.49.01-.95,0-1.9.01-2.84.02h-.28c-1.41.02-2.82.03-4.21.04-1.66.02-3.31.04-4.94.05-.82.01-1.63.02-2.44.03-.3,0-.6.01-.9.01-1.29.02-2.58.03-3.86.05-1,.02-2.01.03-3,.04-1,.01-1.99.02-2.97.04-.38.01-.75.01-1.12.02-1.41.02-2.8.04-4.18.07-.99.02-1.98.03-2.96.05-1.65.03-3.28.06-4.89.09-.73.02-1.45.03-2.17.05-.62.01-1.24.02-1.86.04-.88.02-1.76.04-2.64.06-.95.02-1.89.04-2.83.07h-.04c-.92.02-1.84.04-2.76.07-.35.01-.71.02-1.06.03-1.14.03-2.27.06-3.39.09-.6.02-1.19.03-1.78.05-1.04.03-2.08.06-3.11.1-.17,0-.33,0-.5,0-.17,0-.34.01-.51.02-.97.02-1.94.06-2.91.09-.59.02-1.17.04-1.75.06-.58.02-1.15.04-1.73.06-1.15.04-2.3.09-3.45.13-.07,0-.15.01-.22.01-1.07.03-2.14.08-3.21.12-1.99.08-3.97.16-5.94.25-1.74.08-3.48.16-5.21.24-.23.01-.47.02-.7.03-.81.04-1.61.08-2.42.12-.81.04-1.61.08-2.41.12-1.61.09-3.22.17-4.83.26-.13.01-.27.01-.41.02-3.06.17-6.12.35-9.18.54-.29.02-.58.03-.87.05-1.56.1-3.12.19-4.69.3-1.85.12-3.71.24-5.58.37-1.4.09-2.8.19-4.21.29-1.83.14-3.68.27-5.53.41-1.4.11-2.8.21-4.21.32-1.83.15-3.67.29-5.53.45-1.4.11-2.8.22-4.21.34-1.83.15-3.67.31-5.53.47-1.39.12-2.8.24-4.21.37-1.83.16-3.67.32-5.53.49-1.39.13-2.79.25-4.2.38-1.82.17-3.66.35-5.53.53-1.39.12-2.79.26-4.2.39-1.83.18-3.67.36-5.54.54l.02,2.73c1.87-.2,3.74-.39,5.61-.57,1.38-.14,2.75-.27,4.13-.41,1.86-.17,3.73-.35,5.6-.52,1.38-.13,2.75-.26,4.13-.38,1.87-.17,3.73-.33,5.6-.49,1.37-.12,2.75-.24,4.13-.35,1.86-.16,3.73-.31,5.6-.46,1.38-.12,2.76-.22,4.14-.33,1.86-.15,3.72-.29,5.59-.43,1.38-.1,2.76-.2,4.14-.3,1.86-.14,3.73-.27,5.6-.4,1.38-.1,2.75-.19,4.13-.28,28.68-1.93,57.39-3.2,86.12-4.02,1.33-.04,2.66-.07,3.98-.11,6.47-.18,12.94-.33,19.41-.46,1.35-.03,2.7-.06,4.05-.09,18.41-.35,36.84-.56,55.27-.67,18.41-.37,36.82-.52,55.22-.42l4.14.03c6.43.05,12.87.13,19.3.25,1.37.02,2.74.05,4.11.08,28.72.57,57.41,1.82,86.05,3.9,1.39.09,2.79.2,4.18.3,1.85.14,3.71.28,5.56.43l4.17.33c1.85.16,3.71.31,5.57.47,1.39.12,2.78.24,4.17.37,1.85.16,3.71.32,5.56.5,1.39.13,2.78.26,4.17.39,1.86.18,3.71.36,5.57.55,1.38.13,2.77.27,4.16.42,1.85.18,3.71.38,5.57.58,1.39.14,2.77.29,4.16.45,1.86.2,3.71.41,5.57.62,1.38.16,2.77.32,4.15.48,1.86.22,3.72.44,5.58.67l.03-1.89c-1.87-.19-3.72-.37-5.55-.56Z"/>
        <path class="cls-2" d="m620.66,347.95v24.59c-.74-.03-1.48-.06-2.22-.08-.03,0-.06,0-.09-.01,0-.78,0-1.56.02-2.34.03-6.77.07-13.54.16-20.3-1.4-.19-2.81-.36-4.21-.53l.08-1.97c2.06.21,4.15.42,6.26.64Z"/>
        <path class="cls-2" d="m132.16,350.12c-1.17.12-2.34.25-3.5.39l-.03,19.11v2.81s-.08.01-.12.01c-.9.03-1.8.07-2.71.1v-24.59c2.11-.22,4.19-.43,6.25-.64l.11,2.81Z"/>
      </g>
      <path class="cls-2" d="m596.09,313.26c-1.7-.17-3.4-.33-5.1-.49-1.56-.15-3.13-.3-4.7-.44-1.7-.16-3.4-.31-5.1-.46-1.57-.14-3.13-.28-4.7-.41-1.7-.15-3.4-.3-5.1-.43-1.56-.14-3.12-.26-4.69-.38-1.7-.14-3.4-.28-5.1-.4-.82-.07-1.63-.13-2.45-.19-.75-.06-1.51-.12-2.26-.16-1.69-.14-3.39-.26-5.09-.37-1.57-.12-3.14-.22-4.71-.31-1.69-.12-3.39-.22-5.09-.32-27.49-1.6-56.09-2.12-84.61-2.23-2.3-.01-4.59-.02-6.88-.02-5.53-.01-11.05-.01-16.55,0-2.3,0-4.59.01-6.88.02-18.27.04-36.32.15-53.85.14-16.61-.01-35.04-.12-53.85-.18-2.29-.01-4.59-.01-6.89-.02-5.51,0-11.03-.01-16.54,0-2.3,0-4.59,0-6.88.01-19.39.06-38.35.28-55.3.86-9.78.29-19.55.74-29.31,1.3-1.7.1-3.4.2-5.09.3-1.57.1-3.14.2-4.71.3-1.7.11-3.4.23-5.1.35-1.57.1-3.14.21-4.7.33-1.7.12-3.4.25-5.1.38-1.57.11-3.14.23-4.7.36-1.7.13-3.4.27-5.1.42-1.56.12-3.13.25-4.69.39-1.71.14-3.42.28-5.12.44-1.56.13-3.12.27-4.68.41-1.71.15-3.42.31-5.12.46-1.56.15-3.12.29-4.68.44-1.7.16-3.41.32-5.11.49-1.57.15-3.13.3-4.69.46l.06,5.58c1.61-.17,3.23-.34,4.84-.51,1.65-.16,3.3-.33,4.95-.5,1.61-.17,3.22-.33,4.83-.49,1.65-.17,3.31-.33,4.96-.49,1.61-.17,3.22-.33,4.82-.48,1.66-.16,3.32-.33,4.97-.48,1.61-.16,3.22-.31,4.82-.46,1.65-.16,3.31-.32,4.96-.47,1.61-.15,3.22-.3,4.83-.44,1.65-.15,3.3-.3,4.96-.45,1.61-.14,3.22-.29,4.83-.43,1.65-.14,3.31-.28,4.96-.43,1.61-.13,3.22-.27,4.83-.4,1.65-.14,3.31-.27,4.96-.4,14.97-1.21,29.95-2.25,44.95-3.08,13.08-.72,26.38-1.29,39.76-1.72,2.23-.08,4.47-.15,6.71-.22,5.55-.15,11.11-.3,16.68-.42,2.26-.05,4.51-.1,6.77-.13,18.11-.36,36.19-.51,53.91-.54,17.89-.01,35.88.14,53.9.49,2.26.04,4.51.09,6.77.15,5.56.11,11.12.25,16.69.42,2.23.06,4.47.13,6.71.21,28.36.92,56.69,2.42,84.71,4.68.45.04.91.07,1.36.11,1.2.1,2.41.19,3.61.29,1.6.13,3.21.26,4.82.4,1.65.13,3.3.27,4.96.41,1.61.13,3.22.27,4.83.41,1.66.14,3.31.29,4.97.44,1.6.14,3.2.28,4.81.42,1.65.15,3.31.3,4.97.45,1.61.15,3.21.3,4.82.44,1.66.16,3.32.31,4.97.47,1.61.15,3.22.3,4.82.45,1.66.15,3.32.31,4.97.47,1.61.15,3.21.31,4.82.46l.04-4.8c-1.56-.15-3.13-.31-4.69-.46Zm0,0c-1.7-.17-3.4-.33-5.1-.49-1.56-.15-3.13-.3-4.7-.44-1.7-.16-3.4-.31-5.1-.46-1.57-.14-3.13-.28-4.7-.41-1.7-.15-3.4-.3-5.1-.43-1.56-.14-3.12-.26-4.69-.38-1.7-.14-3.4-.28-5.1-.4-.82-.07-1.63-.13-2.45-.19-.75-.06-1.51-.12-2.26-.16-1.69-.14-3.39-.26-5.09-.37-1.57-.12-3.14-.22-4.71-.31-1.69-.12-3.39-.22-5.09-.32-27.49-1.6-56.09-2.12-84.61-2.23-2.3-.01-4.59-.02-6.88-.02-5.53-.01-11.05-.01-16.55,0-2.3,0-4.59.01-6.88.02-18.27.04-36.32.15-53.85.14-16.61-.01-35.04-.12-53.85-.18-2.29-.01-4.59-.01-6.89-.02-5.51,0-11.03-.01-16.54,0-2.3,0-4.59,0-6.88.01-19.39.06-38.35.28-55.3.86-9.78.29-19.55.74-29.31,1.3-1.7.1-3.4.2-5.09.3-1.57.1-3.14.2-4.71.3-1.7.11-3.4.23-5.1.35-1.57.1-3.14.21-4.7.33-1.7.12-3.4.25-5.1.38-1.57.11-3.14.23-4.7.36-1.7.13-3.4.27-5.1.42-1.56.12-3.13.25-4.69.39-1.71.14-3.42.28-5.12.44-1.56.13-3.12.27-4.68.41-1.71.15-3.42.31-5.12.46-1.56.15-3.12.29-4.68.44-1.7.16-3.41.32-5.11.49-1.57.15-3.13.3-4.69.46l.06,5.58c1.61-.17,3.23-.34,4.84-.51,1.65-.16,3.3-.33,4.95-.5,1.61-.17,3.22-.33,4.83-.49,1.65-.17,3.31-.33,4.96-.49,1.61-.17,3.22-.33,4.82-.48,1.66-.16,3.32-.33,4.97-.48,1.61-.16,3.22-.31,4.82-.46,1.65-.16,3.31-.32,4.96-.47,1.61-.15,3.22-.3,4.83-.44,1.65-.15,3.3-.3,4.96-.45,1.61-.14,3.22-.29,4.83-.43,1.65-.14,3.31-.28,4.96-.43,1.61-.13,3.22-.27,4.83-.4,1.65-.14,3.31-.27,4.96-.4,14.97-1.21,29.95-2.25,44.95-3.08,13.08-.72,26.38-1.29,39.76-1.72,2.23-.08,4.47-.15,6.71-.22,5.55-.15,11.11-.3,16.68-.42,2.26-.05,4.51-.1,6.77-.13,18.11-.36,36.19-.51,53.91-.54,17.89-.01,35.88.14,53.9.49,2.26.04,4.51.09,6.77.15,5.56.11,11.12.25,16.69.42,2.23.06,4.47.13,6.71.21,28.36.92,56.69,2.42,84.71,4.68.45.04.91.07,1.36.11,1.2.1,2.41.19,3.61.29,1.6.13,3.21.26,4.82.4,1.65.13,3.3.27,4.96.41,1.61.13,3.22.27,4.83.41,1.66.14,3.31.29,4.97.44,1.6.14,3.2.28,4.81.42,1.65.15,3.31.3,4.97.45,1.61.15,3.21.3,4.82.44,1.66.16,3.32.31,4.97.47,1.61.15,3.22.3,4.82.45,1.66.15,3.32.31,4.97.47,1.61.15,3.21.31,4.82.46l.04-4.8c-1.56-.15-3.13-.31-4.69-.46Zm14.78-23.71c-1.34-.19-2.69-.38-4.03-.56-1.94-.27-3.88-.53-5.82-.79-1.34-.18-2.67-.36-4.01-.54-1.94-.26-3.89-.51-5.83-.76-1.34-.18-2.67-.35-4.01-.52-1.94-.24-3.89-.49-5.83-.73-1.34-.16-2.67-.33-4.01-.48-1.95-.24-3.89-.47-5.84-.69-1.33-.17-2.66-.32-4-.47-1.94-.22-3.89-.44-5.84-.65-.77-.08-1.54-.17-2.31-.25-.57-.06-1.13-.12-1.7-.18-1.94-.21-3.88-.41-5.83-.6-1.33-.13-2.67-.26-4.01-.39-1.94-.19-3.89-.37-5.84-.54-35.46-3.23-71.05-4.71-106.64-5.38-62.13-.91-124.2-2.55-186.35.52-14.85.75-29.67,1.89-44.47,3.36-1.96.18-3.91.38-5.87.6-1.33.12-2.65.27-3.98.41-1.96.21-3.92.43-5.88.65-1.33.15-2.65.3-3.97.46-1.96.22-3.91.45-5.87.69-1.32.16-2.65.32-3.98.5-1.95.23-3.9.48-5.86.74-1.33.16-2.65.34-3.98.51-1.95.26-3.91.52-5.86.79-1.33.18-2.65.36-3.98.55-1.95.26-3.91.54-5.86.82-1.33.19-2.66.38-3.99.58-1.95.28-3.9.56-5.84.85-1.34.2-2.67.4-4,.6-1.95.29-3.89.59-5.83.89l.23,5.74c1.89-.3,3.78-.6,5.67-.89,1.39-.22,2.77-.44,4.15-.65,1.89-.29,3.79-.58,5.68-.86,1.38-.2,2.76-.41,4.14-.61,1.89-.28,3.79-.55,5.69-.82,1.38-.2,2.75-.39,4.13-.58,1.9-.26,3.8-.52,5.7-.78,1.38-.19,2.75-.37,4.13-.55,1.9-.25,3.8-.5,5.71-.74,1.37-.17,2.75-.34,4.12-.51,1.91-.24,3.81-.47,5.72-.69,1.37-.17,2.74-.33,4.11-.49,1.91-.23,3.81-.44,5.72-.66,1.37-.15,2.75-.3,4.12-.45,1.91-.21,3.81-.41,5.72-.61,35.44-3.68,71.01-5.87,106.69-6.34,62.01-1.04,124.18-2.7,186.12.83,14.93.85,29.82,2.2,44.67,3.89,1.92.22,3.84.44,5.76.67,1.36.17,2.72.33,4.08.5,1.92.24,3.83.48,5.75.73,1.36.17,2.73.35,4.09.54,1.92.25,3.84.51,5.75.78,1.36.18,2.72.37,4.08.57,1.92.26,3.84.54,5.75.82,1.37.19,2.73.39,4.09.6,1.91.27,3.82.56,5.73.85,1.37.21,2.73.41,4.1.62,1.91.3,3.82.6,5.73.89,1.36.22,2.73.44,4.1.66,1.9.3,3.8.6,5.71.91,1.37.22,2.75.44,4.13.67,1.9.31,3.79.62,5.69.93l.16-4.15c-1.93-.27-3.87-.54-5.8-.81Zm-4.98,24.69c-1.7-.17-3.41-.35-5.11-.52-1.56-.15-3.13-.31-4.69-.46-1.7-.17-3.4-.33-5.1-.49-1.56-.15-3.13-.3-4.7-.44-1.7-.16-3.4-.31-5.1-.46-1.57-.14-3.13-.28-4.7-.41-1.7-.15-3.4-.3-5.1-.43-1.56-.14-3.12-.26-4.69-.38-1.7-.14-3.4-.28-5.1-.4-.82-.07-1.63-.13-2.45-.19-.75-.06-1.51-.12-2.26-.16-1.69-.14-3.39-.26-5.09-.37-1.57-.12-3.14-.22-4.71-.31-1.69-.12-3.39-.22-5.09-.32-27.49-1.6-56.09-2.12-84.61-2.23-2.3-.01-4.59-.02-6.88-.02-5.53-.01-11.05-.01-16.55,0-2.3,0-4.59.01-6.88.02-18.27.04-36.32.15-53.85.14-16.61-.01-35.04-.12-53.85-.18-2.29-.01-4.59-.01-6.89-.02-5.51,0-11.03-.01-16.54,0-2.3,0-4.59,0-6.88.01-19.39.06-38.35.28-55.3.86-9.78.29-19.55.74-29.31,1.3-1.7.1-3.4.2-5.09.3-1.57.1-3.14.2-4.71.3-1.7.11-3.4.23-5.1.35-1.57.1-3.14.21-4.7.33-1.7.12-3.4.25-5.1.38-1.57.11-3.14.23-4.7.36-1.7.13-3.4.27-5.1.42-1.56.12-3.13.25-4.69.39-1.71.14-3.42.28-5.12.44-1.56.13-3.12.27-4.68.41-1.71.15-3.42.31-5.12.46-1.56.15-3.12.29-4.68.44-1.7.16-3.41.32-5.11.49-1.57.15-3.13.3-4.69.46-1.71.16-3.42.33-5.12.5l.23,5.61c1.65-.18,3.3-.36,4.95-.53,1.61-.17,3.23-.34,4.84-.51,1.65-.16,3.3-.33,4.95-.5,1.61-.17,3.22-.33,4.83-.49,1.65-.17,3.31-.33,4.96-.49,1.61-.17,3.22-.33,4.82-.48,1.66-.16,3.32-.33,4.97-.48,1.61-.16,3.22-.31,4.82-.46,1.65-.16,3.31-.32,4.96-.47,1.61-.15,3.22-.3,4.83-.44,1.65-.15,3.3-.3,4.96-.45,1.61-.14,3.22-.29,4.83-.43,1.65-.14,3.31-.28,4.96-.43,1.61-.13,3.22-.27,4.83-.4,1.65-.14,3.31-.27,4.96-.4,14.97-1.21,29.95-2.25,44.95-3.08,13.08-.72,26.38-1.29,39.76-1.72,2.23-.08,4.47-.15,6.71-.22,5.55-.15,11.11-.3,16.68-.42,2.26-.05,4.51-.1,6.77-.13,18.11-.36,36.19-.51,53.91-.54,17.89-.01,35.88.14,53.9.49,2.26.04,4.51.09,6.77.15,5.56.11,11.12.25,16.69.42,2.23.06,4.47.13,6.71.21,28.36.92,56.69,2.42,84.71,4.68.45.04.91.07,1.36.11,1.2.1,2.41.19,3.61.29,1.6.13,3.21.26,4.82.4,1.65.13,3.3.27,4.96.41,1.61.13,3.22.27,4.83.41,1.66.14,3.31.29,4.97.44,1.6.14,3.2.28,4.81.42,1.65.15,3.31.3,4.97.45,1.61.15,3.21.3,4.82.44,1.66.16,3.32.31,4.97.47,1.61.15,3.22.3,4.82.45,1.66.15,3.32.31,4.97.47,1.61.15,3.21.31,4.82.46,1.66.16,3.32.32,4.97.48,1.61.15,3.22.31,4.82.47,1.66.16,3.31.32,4.96.48l.19-4.68c-1.7-.18-3.4-.36-5.1-.54-1.57-.17-3.13-.33-4.69-.49Zm-9.8-.98c-1.7-.17-3.4-.33-5.1-.49-1.56-.15-3.13-.3-4.7-.44-1.7-.16-3.4-.31-5.1-.46-1.57-.14-3.13-.28-4.7-.41-1.7-.15-3.4-.3-5.1-.43-1.56-.14-3.12-.26-4.69-.38-1.7-.14-3.4-.28-5.1-.4-.82-.07-1.63-.13-2.45-.19-.75-.06-1.51-.12-2.26-.16-1.69-.14-3.39-.26-5.09-.37-1.57-.12-3.14-.22-4.71-.31-1.69-.12-3.39-.22-5.09-.32-27.49-1.6-56.09-2.12-84.61-2.23-2.3-.01-4.59-.02-6.88-.02-5.53-.01-11.05-.01-16.55,0-2.3,0-4.59.01-6.88.02-18.27.04-36.32.15-53.85.14-16.61-.01-35.04-.12-53.85-.18-2.29-.01-4.59-.01-6.89-.02-5.51,0-11.03-.01-16.54,0-2.3,0-4.59,0-6.88.01-19.39.06-38.35.28-55.3.86-9.78.29-19.55.74-29.31,1.3-1.7.1-3.4.2-5.09.3-1.57.1-3.14.2-4.71.3-1.7.11-3.4.23-5.1.35-1.57.1-3.14.21-4.7.33-1.7.12-3.4.25-5.1.38-1.57.11-3.14.23-4.7.36-1.7.13-3.4.27-5.1.42-1.56.12-3.13.25-4.69.39-1.71.14-3.42.28-5.12.44-1.56.13-3.12.27-4.68.41-1.71.15-3.42.31-5.12.46-1.56.15-3.12.29-4.68.44-1.7.16-3.41.32-5.11.49-1.57.15-3.13.3-4.69.46l.06,5.58c1.61-.17,3.23-.34,4.84-.51,1.65-.16,3.3-.33,4.95-.5,1.61-.17,3.22-.33,4.83-.49,1.65-.17,3.31-.33,4.96-.49,1.61-.17,3.22-.33,4.82-.48,1.66-.16,3.32-.33,4.97-.48,1.61-.16,3.22-.31,4.82-.46,1.65-.16,3.31-.32,4.96-.47,1.61-.15,3.22-.3,4.83-.44,1.65-.15,3.3-.3,4.96-.45,1.61-.14,3.22-.29,4.83-.43,1.65-.14,3.31-.28,4.96-.43,1.61-.13,3.22-.27,4.83-.4,1.65-.14,3.31-.27,4.96-.4,14.97-1.21,29.95-2.25,44.95-3.08,13.08-.72,26.38-1.29,39.76-1.72,2.23-.08,4.47-.15,6.71-.22,5.55-.15,11.11-.3,16.68-.42,2.26-.05,4.51-.1,6.77-.13,18.11-.36,36.19-.51,53.91-.54,17.89-.01,35.88.14,53.9.49,2.26.04,4.51.09,6.77.15,5.56.11,11.12.25,16.69.42,2.23.06,4.47.13,6.71.21,28.36.92,56.69,2.42,84.71,4.68.45.04.91.07,1.36.11,1.2.1,2.41.19,3.61.29,1.6.13,3.21.26,4.82.4,1.65.13,3.3.27,4.96.41,1.61.13,3.22.27,4.83.41,1.66.14,3.31.29,4.97.44,1.6.14,3.2.28,4.81.42,1.65.15,3.31.3,4.97.45,1.61.15,3.21.3,4.82.44,1.66.16,3.32.31,4.97.47,1.61.15,3.22.3,4.82.45,1.66.15,3.32.31,4.97.47,1.61.15,3.21.31,4.82.46l.04-4.8c-1.56-.15-3.13-.31-4.69-.46Zm0,0c-1.7-.17-3.4-.33-5.1-.49-1.56-.15-3.13-.3-4.7-.44-1.7-.16-3.4-.31-5.1-.46-1.57-.14-3.13-.28-4.7-.41-1.7-.15-3.4-.3-5.1-.43-1.56-.14-3.12-.26-4.69-.38-1.7-.14-3.4-.28-5.1-.4-.82-.07-1.63-.13-2.45-.19-.75-.06-1.51-.12-2.26-.16-1.69-.14-3.39-.26-5.09-.37-1.57-.12-3.14-.22-4.71-.31-1.69-.12-3.39-.22-5.09-.32-27.49-1.6-56.09-2.12-84.61-2.23-2.3-.01-4.59-.02-6.88-.02-5.53-.01-11.05-.01-16.55,0-2.3,0-4.59.01-6.88.02-18.27.04-36.32.15-53.85.14-16.61-.01-35.04-.12-53.85-.18-2.29-.01-4.59-.01-6.89-.02-5.51,0-11.03-.01-16.54,0-2.3,0-4.59,0-6.88.01-19.39.06-38.35.28-55.3.86-9.78.29-19.55.74-29.31,1.3-1.7.1-3.4.2-5.09.3-1.57.1-3.14.2-4.71.3-1.7.11-3.4.23-5.1.35-1.57.1-3.14.21-4.7.33-1.7.12-3.4.25-5.1.38-1.57.11-3.14.23-4.7.36-1.7.13-3.4.27-5.1.42-1.56.12-3.13.25-4.69.39-1.71.14-3.42.28-5.12.44-1.56.13-3.12.27-4.68.41-1.71.15-3.42.31-5.12.46-1.56.15-3.12.29-4.68.44-1.7.16-3.41.32-5.11.49-1.57.15-3.13.3-4.69.46l.06,5.58c1.61-.17,3.23-.34,4.84-.51,1.65-.16,3.3-.33,4.95-.5,1.61-.17,3.22-.33,4.83-.49,1.65-.17,3.31-.33,4.96-.49,1.61-.17,3.22-.33,4.82-.48,1.66-.16,3.32-.33,4.97-.48,1.61-.16,3.22-.31,4.82-.46,1.65-.16,3.31-.32,4.96-.47,1.61-.15,3.22-.3,4.83-.44,1.65-.15,3.3-.3,4.96-.45,1.61-.14,3.22-.29,4.83-.43,1.65-.14,3.31-.28,4.96-.43,1.61-.13,3.22-.27,4.83-.4,1.65-.14,3.31-.27,4.96-.4,14.97-1.21,29.95-2.25,44.95-3.08,13.08-.72,26.38-1.29,39.76-1.72,2.23-.08,4.47-.15,6.71-.22,5.55-.15,11.11-.3,16.68-.42,2.26-.05,4.51-.1,6.77-.13,18.11-.36,36.19-.51,53.91-.54,17.89-.01,35.88.14,53.9.49,2.26.04,4.51.09,6.77.15,5.56.11,11.12.25,16.69.42,2.23.06,4.47.13,6.71.21,28.36.92,56.69,2.42,84.71,4.68.45.04.91.07,1.36.11,1.2.1,2.41.19,3.61.29,1.6.13,3.21.26,4.82.4,1.65.13,3.3.27,4.96.41,1.61.13,3.22.27,4.83.41,1.66.14,3.31.29,4.97.44,1.6.14,3.2.28,4.81.42,1.65.15,3.31.3,4.97.45,1.61.15,3.21.3,4.82.44,1.66.16,3.32.31,4.97.47,1.61.15,3.22.3,4.82.45,1.66.15,3.32.31,4.97.47,1.61.15,3.21.31,4.82.46l.04-4.8c-1.56-.15-3.13-.31-4.69-.46Zm0,0c-1.7-.17-3.4-.33-5.1-.49-1.56-.15-3.13-.3-4.7-.44-1.7-.16-3.4-.31-5.1-.46-1.57-.14-3.13-.28-4.7-.41-1.7-.15-3.4-.3-5.1-.43-1.56-.14-3.12-.26-4.69-.38-1.7-.14-3.4-.28-5.1-.4-.82-.07-1.63-.13-2.45-.19-.75-.06-1.51-.12-2.26-.16-1.69-.14-3.39-.26-5.09-.37-1.57-.12-3.14-.22-4.71-.31-1.69-.12-3.39-.22-5.09-.32-27.49-1.6-56.09-2.12-84.61-2.23-2.3-.01-4.59-.02-6.88-.02-5.53-.01-11.05-.01-16.55,0-2.3,0-4.59.01-6.88.02-18.27.04-36.32.15-53.85.14-16.61-.01-35.04-.12-53.85-.18-2.29-.01-4.59-.01-6.89-.02-5.51,0-11.03-.01-16.54,0-2.3,0-4.59,0-6.88.01-19.39.06-38.35.28-55.3.86-9.78.29-19.55.74-29.31,1.3-1.7.1-3.4.2-5.09.3-1.57.1-3.14.2-4.71.3-1.7.11-3.4.23-5.1.35-1.57.1-3.14.21-4.7.33-1.7.12-3.4.25-5.1.38-1.57.11-3.14.23-4.7.36-1.7.13-3.4.27-5.1.42-1.56.12-3.13.25-4.69.39-1.71.14-3.42.28-5.12.44-1.56.13-3.12.27-4.68.41-1.71.15-3.42.31-5.12.46-1.56.15-3.12.29-4.68.44-1.7.16-3.41.32-5.11.49-1.57.15-3.13.3-4.69.46l.06,5.58c1.61-.17,3.23-.34,4.84-.51,1.65-.16,3.3-.33,4.95-.5,1.61-.17,3.22-.33,4.83-.49,1.65-.17,3.31-.33,4.96-.49,1.61-.17,3.22-.33,4.82-.48,1.66-.16,3.32-.33,4.97-.48,1.61-.16,3.22-.31,4.82-.46,1.65-.16,3.31-.32,4.96-.47,1.61-.15,3.22-.3,4.83-.44,1.65-.15,3.3-.3,4.96-.45,1.61-.14,3.22-.29,4.83-.43,1.65-.14,3.31-.28,4.96-.43,1.61-.13,3.22-.27,4.83-.4,1.65-.14,3.31-.27,4.96-.4,14.97-1.21,29.95-2.25,44.95-3.08,13.08-.72,26.38-1.29,39.76-1.72,2.23-.08,4.47-.15,6.71-.22,5.55-.15,11.11-.3,16.68-.42,2.26-.05,4.51-.1,6.77-.13,18.11-.36,36.19-.51,53.91-.54,17.89-.01,35.88.14,53.9.49,2.26.04,4.51.09,6.77.15,5.56.11,11.12.25,16.69.42,2.23.06,4.47.13,6.71.21,28.36.92,56.69,2.42,84.71,4.68.45.04.91.07,1.36.11,1.2.1,2.41.19,3.61.29,1.6.13,3.21.26,4.82.4,1.65.13,3.3.27,4.96.41,1.61.13,3.22.27,4.83.41,1.66.14,3.31.29,4.97.44,1.6.14,3.2.28,4.81.42,1.65.15,3.31.3,4.97.45,1.61.15,3.21.3,4.82.44,1.66.16,3.32.31,4.97.47,1.61.15,3.22.3,4.82.45,1.66.15,3.32.31,4.97.47,1.61.15,3.21.31,4.82.46l.04-4.8c-1.56-.15-3.13-.31-4.69-.46Zm0,0c-1.7-.17-3.4-.33-5.1-.49-1.56-.15-3.13-.3-4.7-.44-1.7-.16-3.4-.31-5.1-.46-1.57-.14-3.13-.28-4.7-.41-1.7-.15-3.4-.3-5.1-.43-1.56-.14-3.12-.26-4.69-.38-1.7-.14-3.4-.28-5.1-.4-.82-.07-1.63-.13-2.45-.19-.75-.06-1.51-.12-2.26-.16-1.69-.14-3.39-.26-5.09-.37-1.57-.12-3.14-.22-4.71-.31-1.69-.12-3.39-.22-5.09-.32-27.49-1.6-56.09-2.12-84.61-2.23-2.3-.01-4.59-.02-6.88-.02-5.53-.01-11.05-.01-16.55,0-2.3,0-4.59.01-6.88.02-18.27.04-36.32.15-53.85.14-16.61-.01-35.04-.12-53.85-.18-2.29-.01-4.59-.01-6.89-.02-5.51,0-11.03-.01-16.54,0-2.3,0-4.59,0-6.88.01-19.39.06-38.35.28-55.3.86-9.78.29-19.55.74-29.31,1.3-1.7.1-3.4.2-5.09.3-1.57.1-3.14.2-4.71.3-1.7.11-3.4.23-5.1.35-1.57.1-3.14.21-4.7.33-1.7.12-3.4.25-5.1.38-1.57.11-3.14.23-4.7.36-1.7.13-3.4.27-5.1.42-1.56.12-3.13.25-4.69.39-1.71.14-3.42.28-5.12.44-1.56.13-3.12.27-4.68.41-1.71.15-3.42.31-5.12.46-1.56.15-3.12.29-4.68.44-1.7.16-3.41.32-5.11.49-1.57.15-3.13.3-4.69.46l.06,5.58c1.61-.17,3.23-.34,4.84-.51,1.65-.16,3.3-.33,4.95-.5,1.61-.17,3.22-.33,4.83-.49,1.65-.17,3.31-.33,4.96-.49,1.61-.17,3.22-.33,4.82-.48,1.66-.16,3.32-.33,4.97-.48,1.61-.16,3.22-.31,4.82-.46,1.65-.16,3.31-.32,4.96-.47,1.61-.15,3.22-.3,4.83-.44,1.65-.15,3.3-.3,4.96-.45,1.61-.14,3.22-.29,4.83-.43,1.65-.14,3.31-.28,4.96-.43,1.61-.13,3.22-.27,4.83-.4,1.65-.14,3.31-.27,4.96-.4,14.97-1.21,29.95-2.25,44.95-3.08,13.08-.72,26.38-1.29,39.76-1.72,2.23-.08,4.47-.15,6.71-.22,5.55-.15,11.11-.3,16.68-.42,2.26-.05,4.51-.1,6.77-.13,18.11-.36,36.19-.51,53.91-.54,17.89-.01,35.88.14,53.9.49,2.26.04,4.51.09,6.77.15,5.56.11,11.12.25,16.69.42,2.23.06,4.47.13,6.71.21,28.36.92,56.69,2.42,84.71,4.68.45.04.91.07,1.36.11,1.2.1,2.41.19,3.61.29,1.6.13,3.21.26,4.82.4,1.65.13,3.3.27,4.96.41,1.61.13,3.22.27,4.83.41,1.66.14,3.31.29,4.97.44,1.6.14,3.2.28,4.81.42,1.65.15,3.31.3,4.97.45,1.61.15,3.21.3,4.82.44,1.66.16,3.32.31,4.97.47,1.61.15,3.22.3,4.82.45,1.66.15,3.32.31,4.97.47,1.61.15,3.21.31,4.82.46l.04-4.8c-1.56-.15-3.13-.31-4.69-.46Z"/>
      <path class="cls-2" d="m622.97,318.13c0,1.36-1.2,2.46-2.55,2.3-1.64-.16-3.28-.32-4.93-.48l.19-4.68c.89.09,1.79.19,2.69.29.03-6.91.07-13.81.16-20.72-.67-.11-1.35-.22-2.02-.33l.16-4.15c1.44.2,2.87.41,4.31.61,1.03.15,1.77,1.02,1.78,2.03.12,8.38.15,16.75.21,25.13Z"/>
      <path class="cls-2" d="m130.98,320.42c-1.63.16-3.26.34-4.89.51-1.64.19-3.12-1.14-3.1-2.8l-.06-25.08c0-1.43,1.06-2.62,2.43-2.83,1.46-.23,2.93-.46,4.39-.68l.23,5.74c-.44.07-.88.15-1.32.22l-.04,19.52c.71-.07,1.42-.14,2.13-.21l.23,5.61Z"/>
      <path class="cls-3" d="m97.97,152.14c75.94-30.73,188.55-32.2,301.94-32.2"/>
      <g>
        <path class="cls-2" d="m135.65,294.39c-1.89.29-3.78.59-5.67.89l-.23-5.74-.89-22.22c-.04-4.3,6.28-4.54,6.48-.16l.24,21.49.07,5.74Z"/>
        <path class="cls-2" d="m136.27,349.66c-1.37.15-2.74.3-4.11.46l-.11-2.81-.11-2.88-.96-24.01-.23-5.61c1.7-.17,3.41-.34,5.12-.5l.06,5.58.28,24.11.03,2.88.03,2.78Z"/>
        <path class="cls-2" d="m137.02,416.21c.01.62-.48,1.12-1.09,1.13-.61,0-1.1-.47-1.13-1.07l-1.64-41.21-.11-2.79-.12-2.79c1.19-.04,2.37-.08,3.56-.12l.03,2.79.03,2.78.47,41.28Z"/>
        <path class="cls-2" d="m145.48,292.88c-1.89.28-3.79.57-5.68.86l-.22-5.69-.83-22.02c-.04-4.3,6.28-4.53,6.47-.15l.2,21.32.06,5.68Z"/>
        <path class="cls-2" d="m146,348.64c-1.37.13-2.74.27-4.11.42l-.1-2.74-.11-2.86-.91-24.08-.21-5.53c1.7-.17,3.41-.33,5.11-.49l.05,5.52.23,24.16.03,2.87.02,2.73Z"/>
        <path class="cls-2" d="m146.64,415.89c0,.61-.49,1.11-1.1,1.12-.61,0-1.1-.47-1.12-1.07l-1.56-41.25-.1-2.77-.11-2.76c1.18-.04,2.37-.08,3.55-.11l.02,2.75.03,2.76.39,41.33Z"/>
        <path class="cls-2" d="m155.31,291.45c-1.9.27-3.8.54-5.69.82l-.21-5.65-.78-21.88c-.03-4.3,6.29-4.52,6.48-.15l.16,21.21.04,5.65Z"/>
        <path class="cls-2" d="m155.74,347.66c-1.38.14-2.75.27-4.13.41l-.09-2.7-.11-2.86-.86-24.12-.2-5.47c1.7-.15,3.41-.31,5.12-.46l.04,5.44.19,24.21.02,2.87.02,2.68Z"/>
        <path class="cls-2" d="m156.25,415.56c0,.61-.49,1.11-1.11,1.12-.6,0-1.09-.47-1.11-1.07l-1.48-41.29-.1-2.74-.09-2.72c1.18-.04,2.36-.08,3.54-.11l.02,2.71.02,2.72.31,41.38Z"/>
        <path class="cls-2" d="m165.14,290.09c-1.9.26-3.8.52-5.7.78l-.19-5.62-.74-21.81c-.02-4.3,6.3-4.5,6.48-.13l.12,21.15.03,5.63Z"/>
        <path class="cls-2" d="m165.47,346.76c-1.38.12-2.75.25-4.13.38l-.09-2.69-.1-2.83-.82-24.2-.18-5.37c1.7-.16,3.41-.3,5.12-.44l.03,5.33.14,24.3v2.83s.03,2.69.03,2.69Z"/>
        <path class="cls-2" d="m165.86,415.23c0,.62-.49,1.12-1.11,1.12s-1.09-.48-1.11-1.07l-1.4-41.34-.09-2.69-.09-2.68c1.17-.04,2.35-.07,3.53-.1l.02,2.67v2.68s.25,41.41.25,41.41Z"/>
        <path class="cls-2" d="m174.98,288.8c-1.91.24-3.81.49-5.71.74l-.18-5.59-.69-21.8c-.02-4.3,6.3-4.5,6.47-.12l.08,21.18.03,5.59Z"/>
        <path class="cls-2" d="m175.2,345.92c-1.38.11-2.76.23-4.13.35l-.09-2.69-.08-2.81-.78-24.29-.16-5.26c1.7-.15,3.4-.29,5.1-.42l.02,5.21.1,24.4v2.8s.02,2.71.02,2.71Z"/>
        <path class="cls-2" d="m175.47,414.91c0,.61-.49,1.11-1.11,1.11s-1.09-.48-1.11-1.07l-1.31-41.37-.09-2.65-.08-2.62c1.17-.03,2.35-.06,3.52-.09v2.6s.02,2.63.02,2.63l.16,41.46Z"/>
        <path class="cls-2" d="m184.82,287.6c-1.91.22-3.81.45-5.72.69l-.17-5.58-.65-21.86c-.01-4.29,6.32-4.48,6.48-.1l.04,21.27.02,5.58Z"/>
        <path class="cls-2" d="m184.94,345.13c-1.38.11-2.76.21-4.14.33l-.08-2.72-.08-2.77-.73-24.4-.15-5.13c1.7-.13,3.4-.26,5.1-.38v5.06s.06,24.51.06,24.51v2.77s.02,2.73.02,2.73Z"/>
        <path class="cls-2" d="m185.08,414.58c0,.61-.49,1.11-1.11,1.11s-1.09-.48-1.11-1.08l-1.23-41.4-.08-2.57-.08-2.56c1.17-.03,2.34-.05,3.51-.08v2.54s.01,2.54.01,2.54l.09,41.5Z"/>
        <path class="cls-2" d="m194.65,280.91v5.54c-1.91.22-3.81.43-5.72.66l-.16-5.55-.61-22c0-4.29,6.33-4.47,6.48-.09v21.44Z"/>
        <path class="cls-2" d="m194.67,344.4c-1.38.1-2.76.2-4.14.3l-.07-2.75-.08-2.72-.68-24.54-.14-4.96c1.7-.12,3.4-.24,5.1-.35v29.54s0,5.48,0,5.48Z"/>
        <path class="cls-2" d="m194.69,414.25c0,.61-.5,1.11-1.11,1.11s-1.09-.48-1.11-1.08l-1.15-41.43-.07-2.49-.07-2.48c1.17-.02,2.33-.04,3.5-.06v46.43Z"/>
        <path class="cls-2" d="m200.88,367.72c1.16-.02,2.33-.03,3.49-.04v2.33s-.01,2.35-.01,2.35l-.06,41.56c0,.62-.5,1.11-1.11,1.11s-1.09-.48-1.11-1.08l-1.07-41.46-.07-2.39-.06-2.38Z"/>
        <path class="cls-2" d="m204.46,308.78v4.68s-.05,24.8-.05,24.8v5.46c-1.39.09-2.76.18-4.14.28l-.07-2.78-.07-2.68-.64-24.68-.12-4.78c1.69-.1,3.39-.2,5.09-.3Z"/>
        <path class="cls-2" d="m204.53,258.19l-.03,21.71v5.49c-1.92.2-3.82.4-5.73.61l-.14-5.5-.58-22.23c.01-4.3,6.33-4.46,6.48-.08Z"/>
      </g>
      <path class="cls-2" d="m295.95,306.61c-.02.46-.05,1.08-.08,1.83-.15,3.43-.42,9.63-.7,16.07-.16,3.62-.32,7.31-.47,10.63-.03.77-.07,1.51-.1,2.22-.03.78-.07,1.52-.1,2.23-1.32.04-2.65.07-3.98.11l-.1-2.27-.1-2.25-1.16-26.52-.09-2.04c2.29-.01,4.58-.01,6.88-.01Z"/>
      <path class="cls-2" d="m319.38,306.63c-.02.34-.03.76-.06,1.26-.14,3.29-.43,9.82-.73,16.62-.16,3.58-.31,7.23-.46,10.52-.03.7-.06,1.39-.09,2.05-.03.68-.05,1.33-.08,1.96-1.35.03-2.7.06-4.05.09l-.08-2.01-.1-2.08-1.18-27.02-.06-1.41c2.3.01,4.6.01,6.89.02Z"/>
      <path class="cls-2" d="m407.12,179.64v-.21l-3.87-8.93h0s-22.32-51.45-22.32-51.45l-4.04-2.62-6.89.05-4.02,2.77-19.67,50.2-26.65-49.86-4.63-2.23-4.42.8-3.36,2.91-17.42,51.93-28.41-52.75-8.05.9-14.87,53.86-26.73-48.8-4.33-2.23-4.42.51-3.82,3.73-6.53,46.84-25.27-43.56-8.11,1.7-5.3,47.75-21.93-39.63-5.03-2.08-2.47.71-3.15,4.33,1.2,37.33-15.62-31.42-7.81,3.89,24.1,48.49,1.49,46.25.09,2.78,4.27-.14,4.45-.14-.02-.53-.1-3.29-.84-26.16,12.15,24.44,1.53,3.08.69,1.39,8.24-1.46.14-1.27.38-3.37,3.88-34.96,17.67,31.93,1.7,3.09.58,1.04,3.36,1.73c2.01-.27,4.02-.53,6.01-.79l3.02-2.95.1-.72.47-3.37,5.27-37.82,20.25,34.92,1.81,3.12,1.5,2.58,7.98-1.03.7-2.53.93-3.38,10.2-36.93,19.02,34.73,1.74,3.17.87,1.59,2.68,1.48c3.14-.18,6.31-.35,9.54-.51l2.72-2.08.45-1.35,1.12-3.32,12.38-36.92,19.3,35.83,1.74,3.22.84,1.57,2.82,1.63c3.47-.08,7.02-.15,10.64-.21l3.06-2.14.47-1.19,1.28-3.28,15.69-40.06,21.27,39.8,1.75,3.26.36.68,3.91,2.31,7.87-.1,3.99-2.73.06-.14,1.31-3.26,14.94-36.97,4.08-10.09.08-.2-.04-3.16Zm-275.18,20.75l-1.4-43.8,21.78,39.38-4.12,37.11-16.26-32.69Zm29.36-6.22l5.2-46.83,24.21,41.74-6.49,46.54-22.92-41.45Zm62.41,34.41l-23.94-41.27,7.21-51.68,28.18,51.46-11.45,41.49Zm46.71,2.31l-1.28.07-24.62-44.96,14.37-52.05,27.14,50.39-15.61,46.55Zm52.6-1.99l-3.03.09-24.49-45.46,18.68-55.68,27.95,52.28-19.11,48.77Zm56.67-1.4l-2.32.03-25.65-47.97,21.3-54.38h1.05s24.32,56.04,24.32,56.04l-18.7,46.28Z"/>
      <path class="cls-2" d="m227.93,372.54l-.82,18.84-.99,22.56c-.04.92-.82,1.64-1.74,1.6-.87-.04-1.56-.74-1.6-1.6l-1.81-41.4c-.04-4.79,6.99-4.81,6.96,0h0Z"/>
      <path class="cls-2" d="m248.22,372.54s-.4,9.15-.82,18.84l-.99,22.56c-.04.92-.82,1.64-1.74,1.6-.87-.04-1.56-.74-1.6-1.6l-1.81-41.4c-.04-4.79,6.99-4.81,6.96,0h0Z"/>
      <path class="cls-2" d="m271.65,372.54l-.82,18.84-.99,22.56c-.04.92-.82,1.64-1.74,1.6-.87-.04-1.56-.74-1.6-1.6l-1.81-41.4c-.04-4.79,6.99-4.81,6.96,0h0Z"/>
      <path class="cls-2" d="m295.99,372.54l-.82,18.84-.99,22.56c-.04.92-.82,1.64-1.74,1.6-.87-.04-1.56-.74-1.6-1.6l-1.81-41.4c-.04-4.79,6.99-4.81,6.96,0h0Z"/>
      <path class="cls-2" d="m319.42,372.54l-.82,18.84-.99,22.56c-.04.92-.82,1.64-1.74,1.6-.87-.04-1.56-.74-1.6-1.6l-1.81-41.4c-.04-4.79,6.99-4.81,6.96,0h0Z"/>
      <path class="cls-2" d="m373.23,20.18c96.11-.59,207.22-2.49,294.2,43.15,0,0-5.09,1.71-5.09,1.71,0,0,6.96-14.84,6.96-14.84l1.57,4.61c-22.2-12-46.16-20.66-70.49-27.44-61.38-16.92-125.44-22.23-188.94-22.55-94.81.64-191.6,2.13-283.01,29.87-17.99,5.54-35.73,12.33-52.34,21.07,0,0,2.05-6.01,2.05-6.01,0,0,6.76,14.93,6.76,14.93l-6.28-2.11C166.21,17.86,276.89,19.38,373.23,20.18h0Zm0,.86c-62.11-1.01-124.53,2.9-185.5,15.03-36.04,7.31-72.42,17.15-104.82,34.52-2.29,1.25-5.21.27-6.28-2.11,0,0-6.9-14.87-6.9-14.87-1.04-2.24-.12-4.89,2.05-6.01,17.26-9.04,35.4-15.97,53.96-21.65C230.82-4.64,341.61-1.66,449.77,2.72c38.23,2.18,76.43,5.86,114.19,12.43,37.91,6.62,75.52,15.93,110.21,33.39,1.69.86,2.38,2.92,1.57,4.62,0,0-6.7,14.96-6.7,14.96-.83,1.84-2.99,2.67-4.83,1.84-79.92-40.86-201.57-50.52-290.98-48.92h0Z"/>
      <path class="cls-2" d="m652.69,31.57s69.49-14,69.49-14c1.89-.42,3.82.21,5.1,1.49,0,0,17.66,17.89,17.66,17.89,1.28,1.14,1.83,2.89,1.36,4.46,0,0-77.46,271.96-77.46,271.96,0,0-.14-2.16-.14-2.16l42.96,104.51c.43,1.05-.07,2.24-1.12,2.67-1.03.42-2.21-.06-2.65-1.07,0,0-45.22-103.55-45.22-103.55-.3-.69-.34-1.44-.15-2.11,0,0,75.44-272.56,75.44-272.58,0,0,1.36,4.46,1.36,4.46s-20.49-14.57-20.49-14.57c0,0,5.1,1.49,5.1,1.49l-70.69,5.18c-2.5.19-3.08-3.54-.56-4.07h0Z"/>
      <path class="cls-2" d="m728.39,38.12l-87.69,274.84s-.17-2.87-.17-2.87c0,0,45,108.69,45,108.69.36.88-.05,1.89-.93,2.25-.86.35-1.84-.04-2.22-.87,0,0-49.44-106.75-49.44-106.75-.43-.94-.46-1.95-.17-2.87,0,0,80.52-277.03,80.52-277.03,3.29-9.94,17.87-5.79,15.1,4.6h0Z"/>
      <path class="cls-2" d="m373.23,89.14c67.71.3,226.8,3.82,281.32,37.05,0,0-4.41,1.95-4.41,1.95,1.81-11.47,3.56-22.96,5.45-34.42l1.12,2.52c-4.73-3.18-10.14-5.67-15.66-7.81-16.76-6.45-34.35-10.53-51.97-14.12-118.47-22.43-240.47-21.17-360.03-8.74-35.77,4.04-71.6,8.98-106.31,18.47-11.15,3.2-22.78,6.82-32.46,12.99,0,0,1.52-3.43,1.52-3.43,1.75,11.48,3.39,22.98,5.08,34.47,0,0-5.28-2.34-5.28-2.34,5.33-3.47,10.95-5.94,16.61-8.11,28.13-10.36,57.88-14.89,87.41-18.9,58.92-7.17,118.31-9.43,177.61-9.58h0Zm0,.65c-47.37.1-94.76,3.27-141.75,9.11-35.04,4.55-70.27,9.79-104.28,19.43-5.63,1.6-11.17,3.45-16.57,5.54-5.38,2.09-10.66,4.49-15.24,7.54-1.57,1.05-3.7.62-4.74-.96-.28-.42-.46-.91-.53-1.38-1.75-11.5-3.56-22.99-5.25-34.49-.2-1.37.44-2.68,1.53-3.39,5.45-3.56,11.18-6.05,16.96-8.22,40.2-14.15,82.99-18.76,125.07-23.46,48.12-4.79,96.48-6.8,144.82-6.29,48.31.61,96.55,3.52,144.61,8.29,41.96,4.75,84.63,8.89,124.87,22.54,5.76,2.09,11.46,4.5,16.84,7.93.87.56,1.28,1.56,1.12,2.52-1.55,11.51-3.25,23-4.88,34.5-.22,1.55-1.66,2.63-3.21,2.41-.45-.06-.84-.22-1.2-.46-9.65-6.08-21.01-9.74-32.03-12.95-11.08-3.18-23-5.9-34.33-8.14-69.71-13.38-140.81-19.79-211.79-20.06h0Z"/>
      <path class="cls-3" d="m648.49,152.14c-75.94-30.73-188.55-32.2-301.94-32.2"/>
      <g>
        <path class="cls-2" d="m613.5,369.88l-.1,2.39-.09,2.33-1.66,41.67c-.02.61-.54,1.09-1.15,1.07-.6-.03-1.07-.53-1.07-1.13l.47-41.72.03-2.34.03-2.43c1.18.05,2.36.1,3.54.16Z"/>
        <path class="cls-2" d="m615.68,315.27l-.19,4.68-1.01,25.3-.08,2.06-.08,1.97c-1.37-.18-2.75-.35-4.13-.51l.03-1.89.02-2.03.29-25.38.05-4.74c1.7.18,3.4.36,5.1.54Z"/>
        <path class="cls-2" d="m617.59,267.32l-.92,23.04-.16,4.15c-1.9-.31-3.79-.62-5.69-.93l.05-4.03.25-22.39c.17-4.3,6.5-4.22,6.47.16Z"/>
        <path class="cls-2" d="m603.8,369.46l-.1,2.46-.08,2.35-1.58,41.67c-.02.61-.54,1.09-1.15,1.07-.6-.03-1.07-.52-1.07-1.12l.39-41.73.02-2.36.03-2.48c1.18.04,2.36.09,3.54.14Z"/>
        <path class="cls-2" d="m605.89,314.24l-.18,4.76-.96,25.36-.08,1.96-.06,1.78c-1.38-.16-2.77-.32-4.15-.48l.02-1.71.02-1.92.24-25.47.04-4.8c1.7.17,3.41.35,5.11.52Z"/>
        <path class="cls-2" d="m607.71,266.03l-.87,22.96-.15,3.92c-1.91-.31-3.81-.61-5.71-.91l.04-3.8.21-22.32c.17-4.3,6.49-4.23,6.48.15Z"/>
        <path class="cls-2" d="m594.09,369.09l-.08,2.49-.09,2.36-1.49,41.67c-.02.61-.54,1.09-1.15,1.07-.6-.02-1.07-.52-1.07-1.12l.32-41.74v-2.36s.03-2.49.03-2.49c1.17.04,2.35.08,3.53.12Z"/>
        <path class="cls-2" d="m596.09,313.26l-.17,4.8-.91,25.46-.07,1.85-.05,1.63c-1.39-.16-2.77-.31-4.16-.45v-1.57s.03-1.81.03-1.81l.19-25.58.04-4.82c1.7.16,3.4.32,5.1.49Z"/>
        <path class="cls-2" d="m597.83,264.74l-.82,22.92-.13,3.68c-1.91-.29-3.82-.59-5.73-.89l.03-3.55.17-22.31c.16-4.29,6.48-4.24,6.48.15Z"/>
        <path class="cls-2" d="m584.39,368.77l-.09,2.48-.07,2.36-1.41,41.67c-.02.61-.53,1.09-1.15,1.07-.6-.02-1.07-.52-1.07-1.12l.24-41.74v-2.35s.03-2.47.03-2.47c1.17.03,2.34.06,3.52.1Z"/>
        <path class="cls-2" d="m586.29,312.33l-.16,4.81-.86,25.59-.06,1.72-.05,1.52c-1.39-.15-2.78-.29-4.16-.42v-1.48s.02-1.66.02-1.66l.14-25.74.03-4.8c1.7.15,3.4.3,5.1.46Z"/>
        <path class="cls-2" d="m587.94,263.44l-.77,22.94-.12,3.45c-1.91-.29-3.82-.58-5.73-.85l.02-3.33.13-22.34c.14-4.29,6.47-4.25,6.47.13Z"/>
        <path class="cls-2" d="m574.68,368.5l-.07,2.43-.08,2.35-1.32,41.67c-.02.61-.53,1.09-1.15,1.07-.6-.02-1.07-.52-1.07-1.11l.16-41.75v-2.34s.02-2.4.02-2.4c1.17.02,2.34.05,3.51.08Z"/>
        <path class="cls-2" d="m576.49,311.46l-.15,4.77-.81,25.76-.05,1.59-.05,1.42c-1.39-.13-2.78-.26-4.17-.39v-1.4s.01-1.52.01-1.52l.1-25.91.02-4.75c1.7.13,3.4.28,5.1.43Z"/>
        <path class="cls-2" d="m578.06,262.15l-.73,23.02-.1,3.21c-1.91-.28-3.83-.56-5.75-.82v-3.08s.1-22.45.1-22.45c.14-4.29,6.47-4.26,6.48.12Z"/>
        <path class="cls-2" d="m564.98,368.28l-.07,2.36-.07,2.31-1.24,41.66c-.02.62-.53,1.1-1.15,1.08-.6-.02-1.07-.51-1.07-1.11l.09-41.75v-4.63c1.18.02,2.35.04,3.51.08Z"/>
        <path class="cls-2" d="m566.7,310.65l-.14,4.71-.78,25.94-.04,1.44-.04,1.37c-1.39-.13-2.78-.25-4.17-.37v-2.73l.06-26.09v-4.67c1.71.12,3.41.26,5.11.4Z"/>
        <path class="cls-2" d="m568.18,260.85l-.69,23.16-.09,2.98c-1.91-.27-3.83-.53-5.75-.78v-2.85l.05-22.61c.13-4.29,6.46-4.28,6.48.1Z"/>
        <path class="cls-2" d="m555.27,368.08l-.06,2.28-.06,2.27-1.16,41.65c-.02.62-.53,1.1-1.14,1.08-.61-.02-1.08-.51-1.08-1.11v-41.74s.01-4.49.01-4.49c1.16.02,2.33.04,3.49.06Z"/>
        <path class="cls-2" d="m556.89,309.9l-.13,4.61-.72,26.15-.04,1.29-.04,1.32-4.17-.33v-28.84s.01-4.57.01-4.57c1.7.11,3.4.23,5.09.37Z"/>
        <path class="cls-2" d="m558.29,259.56l-.65,23.37-.08,2.74c-1.92-.25-3.83-.49-5.75-.73v-25.47c.13-4.29,6.45-4.29,6.48.09Z"/>
        <path class="cls-2" d="m545.57,367.93l-.05,2.17-.06,2.21-1.08,41.64c-.02.61-.53,1.1-1.14,1.08-.61-.01-1.08-.51-1.09-1.11l-.06-41.73v-4.3c1.16.01,2.32.02,3.48.04Z"/>
        <path class="cls-2" d="m547.09,309.22l-.11,4.48-.69,26.36-.03,1.16-.03,1.29c-1.39-.1-2.79-.21-4.18-.3v-2.39l-.04-26.52v-4.4c1.69.1,3.39.2,5.08.32Z"/>
        <path class="cls-2" d="m548.41,258.27l-.61,23.67-.07,2.5c-1.92-.23-3.84-.45-5.76-.67v-2.37s-.04-23.21-.04-23.21c.12-4.29,6.44-4.3,6.48.08Z"/>
      </g>
      <path class="cls-2" d="m457.39,306.67c-.02.49-.05,1.15-.09,1.95-.15,3.47-.42,9.56-.7,15.89-.17,4.14-.36,8.38-.52,12.05-.02.3-.03.59-.04.87,0,.3-.03.59-.04.88-1.37-.03-2.74-.06-4.11-.08l-.03-.87-.04-.88-1.23-28.07-.08-1.76c2.29,0,4.58.01,6.88.02Z"/>
      <g>
        <path class="cls-1" d="m617.32,251.46c-1.49-.23-2.96-.45-4.42-.67-4.35-.67-8.59-1.31-12.74-1.93-3.07-.46-6.1-.9-9.07-1.34-8.17-1.19-16.01-2.29-23.64-3.31-4.42-.59-8.76-1.15-13.06-1.69-9.42-1.18-18.61-2.22-27.81-3.15-3.39-.34-6.78-.67-10.18-.98-10.41-.94-20.93-1.74-31.89-2.41-5.3-.32-10.71-.61-16.26-.87-10.87-.51-22.29-.9-34.53-1.19-3.85-.09-7.79-.17-11.81-.24l-1.5-.03c-.63-.01-1.27-.02-1.91-.03-9.98-.16-20.52-.25-31.75-.3-4.4-.01-8.9-.02-13.52-.02h-2.67c-14.35.01-27.6.1-39.99.28-6.15.09-12.08.2-17.83.34-12.25.29-23.67.68-34.54,1.19-5.55.26-10.96.55-16.26.87-10.96.67-21.48,1.47-31.89,2.41-3.4.31-6.79.64-10.18.98-9.19.93-18.38,1.97-27.8,3.15-4.3.53-8.65,1.1-13.07,1.69-7.63,1.02-15.47,2.12-23.63,3.31-2.97.44-6,.88-9.07,1.34-4.15.62-8.39,1.26-12.74,1.93-1.46.22-2.94.44-4.43.67-2.15.33-4.33.67-6.54,1.01v11.58c92.14-14.25,137.25-16.48,250.64-16.48s158.49,2.23,250.63,16.48v-11.58c-2.21-.34-4.39-.68-6.54-1.01Zm3.27,8.78c-90.34-13.84-137.1-15.95-247.36-15.95s-157.02,2.11-247.37,15.95v-4.96c20.95-3.23,39.47-5.98,57.08-8.3,2.01-.27,4.02-.53,6.01-.79,25.52-3.25,49.44-5.59,76.54-7.14,3.14-.18,6.31-.35,9.54-.51,12.84-.63,26.48-1.1,41.37-1.42,3.47-.08,7.02-.15,10.64-.21,14.14-.23,29.42-.34,46.19-.34s32.69.12,47.09.36c3.31.05,6.55.12,9.74.19,14.89.32,28.53.79,41.37,1.42,3.23.16,6.4.33,9.54.51,27.1,1.55,51.02,3.89,76.54,7.14,1.99.26,3.99.52,6,.79,17.61,2.31,36.13,5.07,57.08,8.3v4.96Z"/>
        <path class="cls-2" d="m554.49,243.24l-.1-.72c-9.42-1.18-18.61-2.22-27.81-3.15l-1.5,2.58-7.98-1.03-.7-2.53c-10.41-.94-20.93-1.74-31.89-2.41l-.87,1.59-2.67,1.48c27.1,1.55,51.02,3.89,76.54,7.14l-3.02-2.95Zm-85.79-6.78l-.45-1.35c-10.87-.51-22.29-.9-34.53-1.19l-.84,1.57-2.82,1.63c14.89.32,28.53.79,41.37,1.42l-2.73-2.08Zm155.66,12.78c-.89-.14-1.78-.28-2.67-.41-2.94-.46-5.84-.9-8.69-1.33-3.85-.59-7.61-1.16-11.31-1.71-3.72-.57-7.38-1.11-10.97-1.63-7.41-1.08-14.57-2.09-21.56-3.04-5.16-.69-10.23-1.35-15.24-1.97-8.6-1.07-17.05-2.04-25.53-2.9-4.29-.44-8.59-.85-12.92-1.24-9.51-.85-19.16-1.58-29.22-2.2-6.2-.38-12.55-.72-19.12-1.02-9.99-.46-20.48-.82-31.67-1.09-2.89-.07-5.83-.14-8.82-.2-2.02-.04-4.06-.08-6.13-.11-1.08-.02-2.17-.04-3.27-.05-9.21-.14-18.91-.24-29.18-.28-4.81-.02-9.75-.03-14.83-.03-1.48,0-2.96,0-4.42.01-13.19.01-25.45.09-36.96.26-7.23.1-14.17.23-20.85.4-11.2.27-21.69.63-31.68,1.09-6.57.3-12.92.64-19.12,1.02-10.06.62-19.72,1.35-29.22,2.2-4.33.39-8.63.8-12.92,1.24-8.48.86-16.92,1.83-25.52,2.9-5.02.62-10.08,1.28-15.24,1.97-6.99.95-14.14,1.96-21.55,3.03-3.6.53-7.25,1.07-10.98,1.63-3.7.55-7.46,1.12-11.31,1.72-2.85.43-5.75.87-8.69,1.32-.89.14-1.78.28-2.68.42-1.59.25-2.77,1.62-2.77,3.23v11.58c0,.96.42,1.87,1.14,2.49.73.62,1.69.9,2.63.75,92.4-14.29,138.75-16.45,250.14-16.45,74.31,0,119.67.96,169.06,5.85,1.99.19,3.99.39,5.99.6,1.34.14,2.69.28,4.04.43,1.91.21,3.84.42,5.77.64,1.4.16,2.8.32,4.22.49,1.86.21,3.74.44,5.63.67,1.43.17,2.86.35,4.3.53h.01c1.84.23,3.68.47,5.55.71,1.44.18,2.88.37,4.34.57h.01c1.83.24,3.68.49,5.54.74,1.42.19,2.85.39,4.29.59,1.86.26,3.74.52,5.63.79,1.39.2,2.78.4,4.19.61,1.9.27,3.81.55,5.75.84,1.33.19,2.68.39,4.03.6,1.95.29,3.92.59,5.91.89,1.94.29,3.89.59,5.87.9.17.02.34.04.5.04.78,0,1.54-.28,2.13-.79.73-.62,1.15-1.53,1.15-2.49v-11.58c0-1.61-1.18-2.98-2.78-3.23Zm-3.77,11c-90.34-13.84-137.1-15.95-247.36-15.95s-157.02,2.11-247.37,15.95v-4.96c20.95-3.23,39.47-5.98,57.08-8.3,2.01-.27,4.02-.53,6.01-.79,25.52-3.25,49.44-5.59,76.54-7.14,3.14-.18,6.31-.35,9.54-.51,12.84-.63,26.48-1.1,41.37-1.42,3.47-.08,7.02-.15,10.64-.21,14.14-.23,29.42-.34,46.19-.34s32.69.12,47.09.36c3.31.05,6.55.12,9.74.19,14.89.32,28.53.79,41.37,1.42,3.23.16,6.4.33,9.54.51,27.1,1.55,51.02,3.89,76.54,7.14,1.99.26,3.99.52,6,.79,17.61,2.31,36.13,5.07,57.08,8.3v4.96Z"/>
      </g>
      <path class="cls-2" d="m625.04,144.28l-1.2,37.34-.67,20.95-1.48,46.26-.09,2.77-4.28-.14-4.44-.14.02-.53.1-3.29.84-26.16.67-20.95,1.41-43.79-21.78,39.37-7.31,13.22-17.67,31.93-1.71,3.09-.57,1.04-3.37,1.73c-2.01-.27-4.01-.53-6-.79l-3.02-2.95-.1-.72-.47-3.37-5.28-37.82-1.95-14.02-7.21-51.68-28.19,51.46-6.02,10.99-19.02,34.73-1.74,3.17-.87,1.59-2.67,1.48c-3.14-.18-6.31-.35-9.54-.51l-2.73-2.08-.45-1.35-1.12-3.32-12.38-36.91-3.8-11.34-18.54-55.29h0s-.66-1.96-.66-1.96l-1.88-.35.78-4.29.78-4.29,4.42.8,3.36,2.91,17.42,51.93,3.8,11.34,15.61,46.55,1.28.07,24.62-44.95,6.02-11,26.73-48.8,4.33-2.23,4.42.51,3.82,3.73,6.53,46.84,1.96,14.02,6.49,46.54,22.92-41.44,7.31-13.22,21.93-39.64,5.02-2.08,2.47.71,3.15,4.33Z"/>
      <path class="cls-2" d="m647.28,154.08l-24.11,48.49-9.33,18.77-12.15,24.45-1.53,3.07-.69,1.39-8.24-1.46-.14-1.27-.37-3.36-3.89-34.97-1.67-15.01-5.2-46.84-24.21,41.74-7.11,12.25-20.25,34.92-1.81,3.12-1.5,2.58-7.98-1.03-.7-2.53-.93-3.38-10.2-36.93-3.33-12.07-14.37-52.06-27.14,50.39-5.68,10.54-19.29,35.82-1.74,3.22-.84,1.57-2.82,1.63c-3.19-.07-6.43-.14-9.74-.19l.07-2.67.02-.61.1-3.26.04-1.57,5.51.16h.41s24.48-45.44,24.48-45.44l5.68-10.54,28.41-52.75,8.05.9,14.87,53.86,3.33,12.08,11.46,41.49,23.94-41.27,7.1-12.25,25.27-43.56,8.11,1.7,5.3,47.76,1.67,15.01,4.12,37.11,16.25-32.69,9.33-18.77,15.63-31.43,7.81,3.89Z"/>
      <path class="cls-2" d="m525.49,372.54s-.4,9.15-.82,18.84c-.48,10.93-.99,22.56-.99,22.56-.04.92-.82,1.64-1.74,1.6-.87-.04-1.56-.74-1.6-1.6l-1.81-41.4c-.04-4.79,6.99-4.81,6.96,0h0Z"/>
      <path class="cls-2" d="m505.2,372.54l-.82,18.84c-.48,10.93-.99,22.56-.99,22.56-.04.92-.82,1.64-1.74,1.6-.87-.04-1.56-.74-1.6-1.6l-1.81-41.4c-.04-4.79,6.99-4.81,6.96,0h0Z"/>
      <path class="cls-2" d="m481.78,372.54l-.82,18.84c-.48,10.93-.99,22.56-.99,22.56-.04.92-.82,1.64-1.74,1.6-.87-.04-1.56-.74-1.6-1.6l-1.81-41.4c-.04-4.79,6.99-4.81,6.96,0h0Z"/>
      <path class="cls-2" d="m457.43,372.54s-.4,9.15-.82,18.84c-.48,10.93-.99,22.56-.99,22.56-.04.92-.82,1.64-1.74,1.6-.87-.04-1.56-.74-1.6-1.6l-1.81-41.4c-.04-4.79,6.99-4.81,6.96,0h0Z"/>
      <path class="cls-2" d="m434.01,372.54s-.4,9.15-.82,18.84c-.48,10.93-.99,22.56-.99,22.56-.04.92-.82,1.64-1.74,1.6-.87-.04-1.56-.74-1.6-1.6l-1.81-41.4c-.04-4.79,6.99-4.81,6.96,0h0Z"/>
      <rect class="cls-2" x="408.71" y="179.33" width="8.73" height="55.77" transform="translate(-46.76 161.12) rotate(-20.92)"/>
      <rect class="cls-2" x="384.1" y="147.05" width="65.57" height="8.73" transform="translate(104.46 466.22) rotate(-65.18)"/>
      <path class="cls-2" d="m433.96,306.65c-.02.36-.04.81-.06,1.34-.15,3.32-.43,9.79-.72,16.52-.18,4.01-.36,8.11-.51,11.69-.02.31-.03.62-.04.92-.01.29-.03.58-.04.86l-4.14-.03-.04-.87-.04-.94-1.24-28.3-.05-1.17c2.29-.01,4.58-.02,6.88-.02Z"/>
    </g>
  </g>
</svg>